<svg xmlns="http://www.w3.org/2000/svg" width="326" height="400" fill="none" stroke="#fff810" stroke-width=".5" stroke-linejoin="round" style="" class=""><path d="M110 142.6c.1.1.2.3.3.4H109c-3.8 2.4-7.5 2.5-11.5.3s-9-1.7-12.5-5.3c-.3 0-.6 0-1-.1h-5.8c-.1.3-.2.6-.2 1-.7 1.3-2 1.5-3 2-4.5 1.6-9 4.4-14 1l-3.2-1.2-17.6 2c-1.7-.1-3.6.8-5-.8-5.2-.4-7.8-5-11.8-7.2l-3.2-3-4-5c-1.4-.7-1-2-1-3.2-3-2-4.7-5-7-7.8-1-.8-1.6-2-1.8-3.4-1.4-3.3-3-6.5-5.4-9.3 4 1.6 5 5.5 6.2 9 .1.4.2 1 .3 1.3.1.2.1.4.2.6.2.3.3.7.5 1l.5.7a70 70 0 0 1 6.4 7.8c0 .1.1.1.2.2v.1l.8 1.4c.2.4.5.8 1 1.2 1.5 1.4 2.6 3.2 3.8 4.8l1 1c.1.1.2.3.4.4l.7.6c.2.2.4.3.6.5l.8.6c3.8 2.4 7 6 11.5 7 .7.3 1.4.4 2.2.4h2.4c5.6-.7 11-2 16.7-1.8.2 0 .4.1.6.1s.3.1.4.1l1.2.3 1.4.4c4.5 2.5 8.8 1 13-1l.4-.1c.3-.1.5-.2.7-.3s.5-.2.7-.4.4-.3.6-.4c.3-.2.6-.5 1-.8.2-.2.5-.4.8-.5l.4-.2a6 6 0 0 1 2-.3c.8-.1 1.6-.1 2.4 0l1 .1c.1 0 .2 0 .3.1h.1c.2 0 .4.1.7.2.1 0 .2 0 .3.1 4.8 2.7 10.3 3.6 15.2 5.8 2.8 1.3 5.5-.3 8.2-.8.3 0 .5 0 .7.1.2 0 .3.1.5.1.1 0 .1 0 .2.1zm150.3 73.8c0-1.2.4-2.3 2-2.3 1.7.7 1.8 2.2 1.6 3.7-.2 1.3-.5 3.2-2 2.8-2-.4-1.6-2.6-1.6-4.2zm4 5.2c-.1-1 .2-2.4 1.5-2.6 1.3-.3 1.5.8 1.7 1.5-.3 1.4-.3 2.7-1.7 3-1.3.3-1.6-1-1.6-1.8zm5-.3c.4-1 .2-2.8 1.7-3.2 1.2-.3 1.6.8 1.5 2-.2 1.3-.6 2.5-2 3-1-.1-1.5-1-1-1.7zm18.2 0c4.4 4 3.6 9.5 4.2 14.5-6.5 4.6-4.7 12.2-7 18.3-2.4 6.7-5.7 13-8.6 19.6-2 4.3-6.8 7-11.3 6-1.4-.2-2.5-.8-3.3-2-1.8-2.6-1.5-11.8.4-14.3 2-3 3.5-6 3.2-9.7a77 77 0 0 1-.2-8.5c.1-3.5.2-6.6 5.4-6.2 2.5.2 4.8-2.2 6.6-4 2.4-2.5 4.7-5.3 7.8-7 3-1.5 1.8-4.4 2.8-6.8zm7.8-103.8c-3.6 6-6 12.4-8.3 19-1.4 4.3-4.3 8.2-8.2 11-4.2 3-7.6 7-10.4 11.3-3 4.5-6.6 8.3-10.5 11.8l-2 2.4c0 1-.3 2-1 2.6-4.3 2.6-5.2 6.8-6 11.3-2 3.8.4 8.3-2 12-3 4.2-1.3 8 1 11.8 1.6 2.5.8 3.8-1.8 4.4 0 .3 0 .6-.1 1 2.7-.5 3.5.6 3 3.3-2 14-7 25.5-21.5 30.7-2.6 1-3.5 2.8-3 6 1 6-1.2 11.8-2 17.6-.3 2-2.8 3-4.7 4-2 1.2-4.7 2-5 5 .7 2.4-2.2 1.2-2.7 2.6l-.2 1.8c.1 3.5-1 6.3-3.6 9a57 57 0 0 0-7.9 10.2c-3.7 6.4-9.7 8-16.3 8.8-7.3.8-14.6 1-21.8 2.2-5.2 1-7-2.4-7-6-.1-4.3-2-7.2-4.4-10.2-2-2.4-3.3-5-3-8.2l-2-2c-3.7-4.3-4.8-9-4.6-15 .2-7-4-13.5-7.8-19.5-2.3-3.6-4.8-7-5.7-11.4-1-1.6-1.8-3.3-.2-5 .3-3.7 1.4-7.4 3.7-10.2 4-5 3.8-10.4 3.5-16-.2-4-1.2-8-.5-12 .4-2.5-2-4-3.3-6-1.6-1.7-3.6-3.3-4.2-5.8l-2.8-4c-1-.4-1.8-1-2-2-5.5-5.8-2.5-12.4-2-18.8-.1-.7-1-1.3-.1-2l1-4v-1.8c-2.8-4.7-7-8.5-8.4-14a95 95 0 0 1 9.1 13.6c0 .1.1.3.1.4.1.2.1.3.1.5.1.4.1.8.1 1.2 0 .3 0 .7-.1 1-.2 1-.6 2-1 3-.1.1-.1.3-.1.4s-.1.3-.1.4v.8c0 .2.1.4.1.7v1c-.3 5.6-2.3 11.4 1.5 16.7l1 1.3c.2.2.3.4.5.6l.5.6c0 .1.1.1.2.2l.2.2c1.2 1.3 2.4 2.5 3.2 4.2 0 .1.1.1.1.2l.3.6c.7 1.3 1.5 2.4 2.5 3.4l1.8 1.8c2.5 2.3 3.2 5 3 8.5-.3 4.8 1 9.5.8 14.3-.1 3.8-.8 7-3 10.3a36 36 0 0 0-4.4 10.5c-.5 1-.6 2.2-.5 3.3 0 .4.1.7.2 1l.4 1.2c2.8 8.2 9 14.6 11.7 23 1.3 4 2.8 7.8 1.8 12-1 4.4 2.7 6.8 4.3 10l.6 1c.1.2.3.4.4.6l.5.8c.1.1.1.2.1.3.1.2.2.5.3.7.6 2.8 1.5 5.4 3.3 7.7 2.4 3 4 6 4.3 10 .2 2.8 1.4 5.3 5 5l29-3.4c1-.3 2.5-.4 3.3-1.2 6.6-7.2 14.4-13.7 17-23.8h0a5 5 0 0 1 .2-.9c.1-.4.3-.7.4-1v-.2c0-.1.1-.1.1-.2l.3-.3c.8-.5 2.5-.1 2.3-1.5l-.1-.4c0-.1-.1-.2-.1-.3.5-2.7 2.4-4.4 4.6-5.5 3.4-1.8 5-4.5 5.4-8.3.4-4.3 1.7-8.4 1-12.8-.5-3.3 1.4-5.3 4-6.7a65 65 0 0 0 10-6.4c7.5-5.8 8.5-14.3 10-22.6.3-1.4-.5-2.6-1.4-3.6-.1-.1-.1-.2-.2-.3v-.1c-.1-.2-.1-.4-.1-.6v-.4c1.3-2.2 1-4.3-.1-6.5-2-3.6-1.8-7.2.4-10.7.8-2.3.7-4.7 1-7 0-.7.1-1.4.3-2l.1-.5.3-1c0-.1.1-.2.1-.2.3-5.8 4-10 7.3-14.2l.4-.6c.1-.1.2-.2.3-.4l1-1.2c.2-.2.4-.5.6-.7 8.5-7.8 13.7-18.3 23-25.5 3.6-3 5.7-7.2 7-12 1-4.4 3-8.5 5.4-12.3 1.2-2 2-3.8 1.2-6-1-2.4-2-3.8-4.8-2-2 1.5-4.6 2-6.8 3.2a19 19 0 0 1-19.9-.5l-.5-.5c-.1-.1-.2-.2-.3-.4l-.8-1c-.1-.1-.1-.2-.2-.2-1-1-2.4-1.6-3.4-2.7-.1 0-.1-.1-.1-.1-.1-.1-.2-.2-.2-.3-.1-.1-.2-.3-.3-.4v-.4c-2-3.7-5.2-6.4-8.6-8.7a39 39 0 0 1-11.2-11.6l-.2-.5c-.1-.1-.1-.2-.2-.3L234 85c-3-4.8-6.3-9.5-10.4-13.5l-2.3-3c-.1-.2-.2-.3-.4-.5s-.3-.5-.5-.7l-.2-.4-.1-.5c-5-8.8-7.5-18.7-13-27.3-.7-1-1.2-2.4-1-3.7.1-1.4.7-2.6 2-3 1.2-.5 2.3.1 3 1 1.3 1.2 2.2 2.8 3.6 4.3.4-7.3-2.5-10.3-9-9.5-4 .4-7.7 2.3-11.7 2-4.3-.3-8.7.5-13-.2l-3.2-.8c-4.2-1.3-8.6-1.6-12.5-4-3-1.8-5 .1-5.7 3.8-1 6.2-3.7 7.7-9.5 5.3-4-1.7-7.4-4.4-11-6.6a43 43 0 0 0-11.8-5.1l-1.3-.3c-.2-.1-.4-.1-.6-.2h-.3c-3.4-1.7-4.6-4.4-2.7-7.8 1.4-2.5.5-5.3 1.3-7.8l.2-.4c0-.1.1-.2.1-.3-.1-2.6 1-4 2-5 .1 1.8-.3 3.4-2.3 4-.4 3.4 2.2 7-1.4 10.3-1.4 1.3 1 3.4 2.5 4.7h2.5c6.6 1.5 12 5.4 17.7 9 2 1.3 4.2 2.8 6.5 3.5 5.5 1.6 7.3.4 6.5-4.7-.6-4 4.3-7.7 7.4-5.3 4 3 8.4 3.3 12.7 4.5 5.6 2.3 11.4.2 17 1 4.4.6 8-2.7 12.6-2.3 7 .5 11 7 7.5 13.6L211 34c-.8-1-1.6-2.5-3.2-1.3-1.3 1-1.5 2.6-.6 3.6 5.8 6 6.4 14.8 10.7 21.7 1.5 2.4 3.5 5 3 8l2 2 1 2c4.4 4 8.2 8.7 11 14 1.4 1 1 2.8 2 4 4 6.8 11 10.6 16.5 15.8 1.5 1.5 3.6 2.6 3.6 5 .1.3.1.7 0 1 1.7-.2 2.6 1.3 3.8 2 1 .4 1.3 1.3 1.3 2.3 10.3 4.8 19.3 1.3 28-4.5.8-.5 2-1.5 2.5-.3 1 2.6 4.7 4.7 2.8 8z" class="HKovECOc_0"></path><path d="M123.7 5c-.1-.1-.2-.1-.3-.2-2.5-1.2-5-1.6-7.3.3 0 0-.1 0-.1.1-.2.1-.5.2-.8.3-.1 0-.2.1-.2.1l-.6.2-1 .3c-3 .3-6.2 1.4-9.3 1-9.4-.7-18.3 1-27 4.6-.3.1-.6.2-1 .2l-.7.1H75c0 0-.1 0-.1 0h-.6a24 24 0 0 1-11.1-1.5c-2.6-1.2-4.4-.2-5.8 2.2-1.5 2.7-3.6 4.7-6.7 5.5-2.5.7-4 2.5-4.4 5-1 5.7-4.5 9-9.6 11.2-2 .8-3.8 2-5.3 3.6-.1.1-.2.3-.4.4v.2c-.2.2-.5.4-.7.6-.3.2-.6.4-1 .6-.6.3-1 .6-1.7 1a12 12 0 0 0-5 4.7L8.7 67.3c-.3.4-.5.8-.8 1.2l-.2.8c-1 5 0 10-.5 15 0 .5-.1 1-.3 1.6-.2.6-.3 1-.5 1.7-.1.3-.1.6-.1.8 0 0 0 .1 0 .1l-.1 1c0 .1 0 .1 0 .2C6 91.7 5.5 94 4.7 96 4 97.6 3.4 99.4 1 99c3.8-2.2 2.8-6.5 4.2-9.7C5 88 4.7 87 6 86c.2-.2.3-.5.2-.8.2-6.2-1.3-12.5 1-18.5a161 161 0 0 0 14.3-22.1c1.2-2.3 3-4 5.5-4.7l3.2-2c2-2.7 5-4 7.7-5.2 4-1.7 6.5-4.6 7-9C45.4 20 47 17.5 51 17c3-.3 4-2.4 5.2-4.8 1.5-3 3.5-5.3 7.4-2.7C67 12 71 10.7 75 11h1c12-6.6 25.3-4.5 38-6l2-1c2.7-1 5.7-3.8 7.6.6C124 3.3 125 2 126 1c.1 1.8-.3 3.4-2.3 4z" class="HKovECOc_1"></path><path d="M26 105.6c-.1.2-.1.4-.2.6-.2.4-.3.7-.6 1-.5.7-1 1-1.8 1.4a8 8 0 0 1-3 .6c-1.4.1-2.8-.1-4 .6-.3.2-.6.5-1 .8-.7.8-1.5 1.5-2.4 2l-1.4.5c-.8.3-1.6.6-2.4.7-.4 0-.8 0-1.2-.2-.5-.2-1-.6-1.6-1.2-1.4-3.4-3-6.6-5.4-9.4v-4c3.8-2.2 2.8-6.5 4.2-9.7.4-.4.8-.8 1.2-1 0 0 .1 0 .1-.1.5-.2 1-.4 1.4-.5 1.2-.2 2.5-.1 3.8 0h1.5c4 1 6 4 8 7.3l.8 1.4c.1.2.2.3.3.5.5 1 1 2 1 3 .6-1-.4-4 2-2.8v.1l.8.5c1 2.6.7 5.2.1 7.8zM235.3 87c-.1.4-.3.7-.6 1-.8 1.2-2 2.3-2.3 3.8v.4c-.2 1.6-.1 3-.5 4.7-.3 1-.4 1.7-.5 2.6v2.3c0 .8-.1 1.6-.3 2.4l-1 4c0 .1-.1.2-.1.3-.5 1.2-1 2.4-1.4 3.7a6 6 0 0 0-.1.6c-1 1.7-3 1.8-4.6 2.7-7 4.3-7.6 5.3-5 13-.1.1-.2.1-.2.2a1 1 0 0 0-.2.3c-.2.6.2 1.2.4 1.8 0 .1 0 .2.1.3v.2c-.2.6-1.4 1.4.5 1.5h.2c.6.1 1.2.6 1.8 1l.6.4a9 9 0 0 1 2.3 2.3l.4.6c.6.8 1.3 1.4 2 2l.7.5a4 4 0 0 1 1.2 1.6l.3 2c.1.7 0 1.4-.4 2 0 .1-.1.1-.1.1-.1.2-.3.4-.5.5-.3.2-.7.3-1 .4-1.2.3-2.3.3-3.5.6-.1 0-.1 0-.2.1-.1 0-.2 0-.2.1l-.7.3c-1.7.7-3.3 1.2-5 1.3h-.8c-2 0-4-.5-6-1l-1.2-.2c-1.3-.2-2.5-.6-3.7-1.2-.1 0-.1 0-.2-.1-.3-.2-.6-.4-1-.7-.2-.2-.4-.5-.5-.8v-.4c-.5-3.4-2.6-2-4.3-1.4-.2.1-.5.2-.7.2h-.4-.3c-.5.1-1 .1-1.4 0h-.1l-1.2-.3-.4-.2c-.8-.3-1.5-.8-2-1.3l-1.7-1.3c-.1-.1-.2-.1-.2-.2l-.7-.6c-1-.7-2-1.3-3-1.8l-1.2-.5c-2.4-.7-2.8-3.6-4.6-5-.5-.4-1.2-.7-2-.7h-.2c-.3-.1-.5-.1-.8-.2 0 0-.1 0-.1-.1-.1 0-.1 0-.2-.1h-.1c-1.5-.7-2.2-2-2.5-3.5 0-.1-.1-.3-.1-.4a9 9 0 0 0-1.3-4c0-.1-.1-.2-.2-.3l-.6-1.2-.2-.3-.6-1.3-.6-2c-.2-1-.4-2-.4-3.2v-.4l-.1-.4c-.3-.8-1-1.5-1.3-2.2v-.1s0-.1-.1-.1a3 3 0 0 1-.4-1c-.3-1-.4-2 0-3 0-.1.1-.2.1-.3l.2-.4v-.1a47 47 0 0 1 1.2-2.5l.1-.1 2.5-3.8.6-.3c.2-.1.4-.2.6-.2.4 0 .8-.1 1.2-.2 1.5-.3 2.6-1 2.4-3.3v-4c0-1.3 0-2.6.1-3.8.1-.5.1-1 .3-1.6.2-.8.7-1.4 1.6-1.5 1.8-.3 2 1.3 2.5 2.5.2.4.3 1 1 1.2 1.3-2.7 2-5.3-.3-8-.7-1-1-1.8-1-2.7.1-1.4 1-2.7 2.4-3.7 2-1.6 4.3-2.2 6.7-2.8l1.8-.3h.7c.8-.1 1.7-.1 2.5-.1h.1c1-.1 2-.2 2.8 0l.6.3c1.3.7 2.7 1 4 .7.4 0 .7-.1 1-.2.4-.1.8-.2 1-.3.3-.1.6-.2 1-.2h.1c.3-.1.6-.1 1-.1 2-.1 3.7-.7 5.2-1.7l.8-.6c.7-.2 1.4-.3 2-.2l6.7 1.2c.5.1 1 .2 1.5.4 4.4 4 8.2 8.7 11 14 .7 1.2.6 2 .3 3z" class="HKovECOc_2"></path><path d="M186 74.4c2.3-1.6 5-1.6 7.4-2.5-.1-.5-.2-.8-.4-1-.1-.1-.1-.1-.2-.2-.4-.4-1-.6-1.5-.7l-.7-.2c0 0 0 0-.1 0h0c-2.2-.4-4.5-1-6.7-1.3h-.1c-.1 0-.1 0-.1 0-.6-.2-1-.1-1.5 0-.7.3-1.3.8-2 1-.2.1-.4.1-.6.1V69c.1-2 .1-4.2.1-6.3v-9.2c0-.1 0-.2 0-.4l-.4-5c-.2-.7-.4-1.5-.5-2.2v-.4c-.4-3.2.1-6.5-.3-9.7-.1-.2-.2-.4-.3-.6 0-.1-.1-.1-.1-.2-.7-2 .1-3.8.4-5.6 0-.3.1-.6.1-1 0-.5 0-1-.1-1.5-4.3-1.2-8.8-1.4-12.7-4.5-3-2.4-8 1.2-7.4 5.3.8 5-1 6.3-6.5 4.8-2.3-.7-4.4-2.2-6.5-3.5-5.7-3.4-11-7.4-17.7-9-.7.3-1 .6-1.5 1-.1.1-.1.1-.2.2-.6.8-1 1.8-1.5 2.7l-.4 1c-.4.8-.8 1.6-1.4 2.3-.3.4-.6.8-1 1L119 31c-.2.3-.4.6-.6 1h0l-1 1.3c-.5.6-.8 1.3-1 2-.2.7-.3 1.4-.2 2.3.1.3.1.6.2 1h0c0 .3.1.6.1 1 .1 1.7 0 3.3 0 5v5c0 .2 0 .4 0 .6h0c0 .4 0 .7 0 1 0 2.2-.2 4.4.6 6.6.2.4.5.7.8 1 .1.1.1.1.2.2 1.5 1.3 3.7 1.3 5.5 2l.3.1c.1 0 .1.1.2.1 0 0 .1 0 .1.1 1.4 1 1.6 3.2 3.5 3.8l.7.2c1.3.3 2.7.2 4 1l.5.2c0 0 .1 0 .1.1 1.2.6 2.4 1 3.7 1.3.1 0 .2 0 .3 0h.3c.3 0 .5-.1.7-.2l.2-.1c.1-.1.2-.1.3-.2 0 0 .1 0 .1-.1h0c.6-.5 1.3-1 2-1.2.2 0 .3-.1.5-.1 2-.5 4-.5 6 .2h0c0 0 0 0 0 0h.1c1.6.7 3 1.8 4.3 2.7 0 0 0 0 .1 0l4.3 2.2c.1 0 .1 0 .1.1.1 0 .1 0 .1.1 1.2.5 2.3 1 3.3 2l2.6 1.8c.2.2.4.3.6.5 3.6 2.7 7 6 11.6 7h.7c.2 0 .4 0 .6-.1 1-.2 1.5-1 1.8-2 0 .1 0 .2 0 .2a19 19 0 0 0-.6 2.8l-.2 2c-.1 2 0 3.8.2 5.6 0 0 0 0 0 0v1c0 .1.1.2.1.3 0 0 0 .1 0 .1.1.2.2.4.4.6 0 0 .1.1.1.1.3.3.7.5 1.2.5.7-2.5-1-5.4 1.2-7.8 1.3 1.3.7 2.8 1 4 .4 1.5 1.4 2.3 3 1.7 1.3-.5 2.3-9.2 1.2-10-3.7-2.7-2.5-4.6.7-6.7z" class="HKovECOc_3"></path><path d="M177.6 79l.2-.2c.1-.2.3-.3.5-.5.6-.5 1.4-.8 2.3-.8-.6.6-1.6.6-2.3 1-.1.1-.3.2-.4.3s-.2.3-.3.5V79zm30.8 121v.6c-.1.5-.2 1-.4 1.2-.6 1.4-1.7 2-3 2.2-.6.1-1 0-1.8-.1h-.2c-.8.2-1.2-1.6-2.2-.4 0 .1 0 .3-.1.4l-.1.4c0 .1 0 .2-.1.2-.2.4-.4.7-.6 1-1 1.4-.7 3-.7 4.4v.5c0 1.5 0 3 .1 4.5v.3l.3 2c0 .4 0 .8-.1 1.2 0 .1-.1.1-.1.2-.1.1-.1.2-.2.2-.7 1.2-.2 2.8-.5 4a3 3 0 0 1-.4.8s0 .1-.1.1c-.3.3-.7.5-1.2.6h-.6c-1-.1-1.8-.5-2.7-1l-.4-.2c-.4-.2-.7-.5-1-.8-.4-.4-.7-1-.8-1.5-.1-.7.8-2 0-2-1-.2-1.5.8-2.3 1.3-.1.1-.2.1-.3.2-.1 0-.2.1-.3.1s-.1.1-.2.1c-.3.1-.6.2-1 .2h-1c-2.8-.3-4.5-2-5.4-4.6l-.2-.4c-.1-.2-.2-.4-.2-.6-.4-1.6-.2-3.2.6-4.6 1.4-2.5-1.4-4.3-.7-6.7-2 .8-4 .3-6 .1-.7-.1-1 .7-1 1.4.1 1.6 1.2 2.3 2.5 2.7 3.8 1.3 5.8 3.2 3 7 0 .1-.1.1-.1.2-.1.2-.2.3-.4.5-.1.2-.3.3-.4.4 0 .1-.1.1-.1.1v.1c-1 .5-2 1-3 .3l1.3 1c.1.2.1.3.1.5a3 3 0 0 1 .1.9v.1a7 7 0 0 1-.7 2.1c0 .1-.1.1-.1.2-.1.1-.1.2-.2.3-.1.2-.3.3-.4.5-.3.2-.7.4-1 .5-1.2.3-2.7.2-3.7 1v.3a60 60 0 0 0-.5 2.6l-.2 1.8c-.1 1-.1 2.2 0 3.3l.2 1.2.4 1.3.8 1.8c1 1.3 2 2.6 1.8 4.3v.2c0 .2 0 .3-.1.5a4 4 0 0 1-3.1 2.7c-.3.1-.6.1-1 .1-.5.1-1 .1-1.4.1h-.2c-2 .2-4-.4-6-.7h-2-6c-7 0-14-.1-21 .1H131l-2.8.3c-.4 0-.7-.1-1-.2-.8-.4-1.3-1.4-1-3.7.3-3.7 1.4-7.4 3.7-10.2 4-5 3.8-10.4 3.5-16-.2-4-1.2-8-.5-12 .4-2.5-2-4-3.3-6-.3-.8-.3-1.4-.3-2 .2-1.2 1.2-1.7 2.4-2l1.4-.2a22 22 0 0 1 6.4.1l5.3 1.3c.3.2.6.4.8.7l.1.1c.3.4.5.8.7 1.3.3 1 .3 2.4.7 3.5l.3.7a6 6 0 0 0 2.3 1.4c1.4.5 3 .4 4.6.3h.5c.6-.3 1-.7 1.7-1 1-1 2-1.6 3.3-2 1-.2 2-.2 3 .3l.5.3c.1.1.2.1.3.2l2.4 1.6a5 5 0 0 0 .2.1h.1c.3.1.5.2.7.2-.1-.1-.3-.2-.7-.4h-.1v-.1c-1-.3-1.7-1-2.5-1.5-.1-.1-.2-.1-.3-.2s-.2-.1-.3-.2c-.7-.3-1.4-.5-2-1.2l-.1-.1c-.1-.1-.1-.2-.2-.3-.1-3 1.8-3.8 4.2-3.2 2.6.6 3-.4 2.5-2.6-.5-2-.7-4.3-1.3-6.3-.5-1.6-.1-3 1.5-3.8 1.8-.7 2.7.6 3.4 2 .5 1 .7 2.2 1 3.3 2 5 6 5.5 9.4 1.3 3-3.6 4.2-3.7 5.6.4 1 3 3.6 1.7 5.4 2.2-1.8-1.2-3.4-2.4-1.6-4.8 1.8-2.5 4.7-2.6 7-.5 1.7 1.5 3.4 2.2 5.5 2h.3c.3 0 .6-.1 1-.2.1.3.3.5.4.8.3.6.4 1.3.4 2a8 8 0 0 1-.1 1.6l-.3 1.4c-.1.2-.2.3-.3.5 0 .1-.1.2-.2.2-.5.6-1.2 1-2 1-.7.2-.5.4.1.7.5.3-.1-.2.5 0l.4.3c.5.4 1 1 1.5 1.5.4.3.7.7 1.2 1 .2.1.5.2.8.2 1 .5 1.5 1.3 1.6 2.3zm1.6 87c.1 3.5-1 6.3-3.6 9a57 57 0 0 0-7.9 10.2c-3.7 6.4-9.7 8-16.3 8.8-7.3.8-14.6 1-21.8 2.2-5.2 1-7-2.4-7-6-.1-4.3-2-7.2-4.4-10.2-2-2.4-3.3-5-3-8.2.2-.3.3-.6.5-.8.3-.4.6-.6 1-.8 1.4-.7 3-.1 4.7.1.7.2 1.2.5 1.7 1 1.7 1.5 3.4 1.8 5.3.4.4-.7.3-1.5.3-2.2l-.2-3.8c0-.4 0-.7.1-1l.7-2.2c.1-.2.3-.5.4-.7 0 0 0-.1.1-.1s.1-.1.2-.1c.1-.1.1-.1.2-.1.2-.1.3-.1.5-.1h.4c.5.1 1 .4 1.3.6l.4.3c.1.1.3.2.4.3.2.1.3.2.5.3 1.3.7 2.5.8 3.7-.2.3-.2.6-.5.8-1 1-1.2 2.3-2.2 3.8-2.8l.2-.1c1.8-.5 3.4.2 5 .7 1.8.5 3.6 1 5-.7.2-.4.4-.7.7-1 0-.1.1-.1.1-.1 1-1.2 1.4-2.7 2.2-4v-.1s.1-.1.1-.2l1.4-2.4.3-.8c.2-.4.4-.8.7-1l.7-.5c1.2-1 2.5-1.8 3.7-3l.3-.3c.4-.3.8-.5 1.2-.7l1.4-.4c.7-.2 1.3-.2 2-.2h.1l3.4.2c1.7.1 3.4-.1 5 .3.2.1.4.1.6.2h.1c.2.1.4.3.6.5l.3.6v1c.1 1.5.4 3 .6 4.5l.1.8c.3 1.5.3 3-.1 4.2-.4 1.4-1 2.6-2.2 3.6l-.6.6v.1l-.3.6c-.3.8-.1 1.5.6 2h.3l.1.1c.2.1.3.2.5.3s.3.2.5.2l1.2.5c.4.2.7.5 1 1zm11-221l-1.5 1.5a13 13 0 0 1-2 1.1l-1 .4h-2c-2.2 1.3-4.7 2-7.2 2.3h-.2c-.1 0-.2 0-.3.1l-2.4.5c-.6.1-1.2.1-1.8.1-1.4 0-3 0-4-1l-1.4 1c-1-.7-2.4-1-3.7-1.3l-10.2-2c-.1 0-.1 0-.2-.1-.4-.1-.8-.1-1.2-.2-.6-.1-1-.3-1.4-.8l-.3-.6v-.5c-.3-1.4-.4-3-.4-4.4 0-1.7.1-3.5-.1-5.2l-.1-.8-.2-.6-.2-2.4c.3-1.8-.3-3.5-.7-5.3l-.2-1.3c-.1-.5-.1-1-.1-1.6-.2-3 .4-6.4-.3-9.5l-.2-.8c-.3-3-.2-4.4.8-5a3 3 0 0 1 1.2-.5 15 15 0 0 1 3-.3c4.3-.1 8.5.5 12.8-.4 4.4.6 8-2.7 12.6-2.3 7 .5 11 7 7.5 13.6L211 34c-.8-1-1.6-2.5-3.2-1.3-1.3 1-1.5 2.6-.6 3.6 5.8 6 6.4 14.8 10.7 21.7 1.5 2.4 3.5 5 3 8z" class="HKovECOc_4"></path><path d="M246 215.2l-.4.3c-.4.2-.7.4-1 .5a7 7 0 0 1-2.1.3l-3 .1c-.7 0-1.4.1-2 .4-.1 0-.2 0-.2.1l-3.3 1h-.1-.2c-.5.1-1 .2-1.4.2-.5.1-1 .1-1.6.1s-1.3-.1-2-.3c-.1 0-.1 0-.2-.1-.2-.1-.3-.2-.5-.3s-.3-.2-.4-.3c-.3-.3-.5-.6-.7-1-.3-.5-.6-1-1-1.4 0-.1-.1-.1-.2-.2l-.5-1.2c-.1-.2-.1-.5-.3-.7-.5-1-1.5-1.4-2.6-1.7h-.5c-.4-.1-.7-.3-1-.5-.1 0-.1-.1-.2-.1 0 0 0-.1-.1-.1-.3-.3-.5-.7-.7-1-.1-.4-.3-.8-.6-1.2-.1-.2-.2-.3-.4-.5l-1.2-1c-.6-.3-1.2-.6-2-.8l-.4-.1c-.1-.1-.3-.1-.4-.1a11 11 0 0 0-1.8-.3l-1.3-.1c-.4 0-.8-.1-1-.1l-1-.2c-.4-.1-.7-.3-1-.6l-.2-.2c-.4-.7-.5-1.5-.6-2.2v-2.3l-1.5-1.5c-1.2-.3-1.7-.8-1.7-1.4-.1-1 1-2.6.3-3.6-.1-.1-.1-.2-.2-.2-.1-.2-.1-.4-.1-.5-.5-1.8-.6-3.4 0-5 .3-.7.7-1.4 1.3-2l.7-.6c0-.1.1-.2.1-.2l.6-1c.8-1 1-1.8 1.2-3 .1-.6 0-1.3 0-2l-.2-3.6c0-.4-.1-.7-.2-1-.1-1 0-2 .3-2.7.1-.3.2-.7.3-1v-.5c.2-.4.6-.8 1-1h.2c3.6.5 7.2 0 10.8.7l.7.2c.3 0 .6.1 1 0 .2 0 .5 0 .7-.1h.4c.2 0 .5-.1.7-.1l.6-.2c.5-.1 1-.2 1.4-.2s.8 0 1.3.1a4 4 0 0 1 1.1.4l.3.2.4.4c1 1.4.6 3.7 2.4 4.5.2.1.4.2.7.2 4.2 3.2 8.7 5.8 12 10l.5.5c.8 1 1.4 2 1.8 2.8v.7c1 3.2.3 6.8-.2 10.2-3 4.2-1.3 8 1 11.8 1.6 2.5.8 3.8-1.8 4.4zM134 114.6l-.3 3c0 .4-.1.7-.1 1v.5c-.3 1.4-1.2 2.4-2.3 3.3-.2.2-.4.3-.6.5-1 1-2 2-2.4 3.4l-.3 1c-.2.7-.4 1.3-.8 2l-.6.5a11 11 0 0 0-3.3 6l-.1 1c-1 2-2.6 2.4-4.6 2.2l-1-.3c-1.2-.3-2.3-.4-3.4.5l-.1.1-1 .8-.3.3c-.6.6-1.3 1-2 1.6l-1.8 1c-3.8 2.4-7.5 2.5-11.5.3s-9-1.7-12.5-5.3c-.3-.3-.5-.6-.7-1l-.3-.6c-.3-1-.4-2-.4-3V132c.1-3-.2-6 .3-9 .1-.4.2-1 .4-1.3l.1-.3c.5-1.2 1.3-2.3 2-3.5h0c.3-1 .1-2 .2-3v-.2c.2-.8.5-1.5 1-2.2l.8-1.6s0-.1.1-.1c0-.1.1-.1.1-.2v-.1c.3-.6.6-1 1-1.7l1.8-2.7c.3-.3.6-.6 1-.8h.1c1.3-.5 2.7-.7 4-.8l.7-.1c2.5.3 3.8 2.3 5.4 4 .3.3.5.6.8.7.7.4 1.5.3 2.3.1l.7-.2c1.4-.1 2.8-.3 4-1 .3-.2.5-.3.8-.6 1.4-.7 3-1.2 4.5-1 .4 0 1 .2 1.3.3 1.7.5 3.3 1.5 5.2 1.7a6 6 0 0 0 1 0h1.3c.3.1.7.2 1 .2 1 .1 2-.1 3-.4l1.8-.5c1 .2 1.5.7 2 1.3.3.4.5.8.7 1.2l.2.4c0 .1.1.2.1.3.3.6.5 1.2.7 2 0 .1.1.3.1.4.1.3.1.6.1 1v.6z" class="HKovECOc_5"></path><path d="M173.6 242.7c-.4 1.3-2.3 2-2.3 3.5v.1c0 .1 0 .2-.1.3-.2.7-.8 1-1.3 1.4l-3.8 2.5v.2c-.3.2-.5.5-.7.8-1.7 3.4-.1 7.2-1.3 10.6l-.3.7c0 .1-.1.2-.2.2l-.7.7c-.1.1-.1.1-.2.1-1 .7-2 1-2.4 2.3v.3a34 34 0 0 0-.7 9.4l.1 1.6c0 .1 0 .3.1.4v.3c.1 1 .3 2 .4 3 .2 1.2.1 2.4-.1 3.5-.1.7-.2 1.4-.4 2 0 .1.1.3.1.4v.3c.1 1.3-.1 2.6.5 3.8l1 1.7c-2.7 2.5-5.5 2.6-8-.1l-.4-.6c-1.6-1-3.3-.8-5-.6H146c-.7 0-1.3-.2-2-.6-3.7-4.3-4.8-9-4.6-15 .2-7-4-13.5-7.8-19.5-2.3-3.6-4.8-7-5.7-11.4.3-.3.6-.5 1-.7.2-.2.5-.3.7-.4 1-.5 2.2-1 3.3-1l1-.2h26c.3 0 .5 0 .7.1.1 0 .2 0 .4.1 2.5.4 5 2 7.7.5 2 0 4-.2 5.2-2.3.2-.1.3-.1.5-.1.3 0 .5.1.8.2.2.4.4.7.4 1 .1.3 0 .6 0 .8zm75.4-23.3c-2 14-7 25.5-21.5 30.7-2.6 1-3.5 2.8-3 6 1 6-1.2 11.8-2 17.6-.3 2-2.8 3-4.7 4-2 1.2-4.7 2-5 5-.2.1-.4.2-.6.2-2.5.8-2.8-1.4-3-3l-.2-2c-.1-1.6-.2-3-.4-4.7v-.2c-.3-1.8-.8-3.6-.7-5.4v-.2a8 8 0 0 1-.6-1.1v-.2c0-.3.1-.6.2-1h.1c.1-.1.2-.2.4-.3s.3-.2.5-.2c.1 0 .1-.1.2-.1 1-.5 1.3-1.3 1.7-2.2l.5-1c.2-.6.5-1.2 1-1.8l.3-.5c1.2-2.2.5-4.6.7-7 0-.7 0-1.5.1-2.2 0-.4.1-.8.2-1.2l.4-1.8c.1-.3.1-.6.2-1 .2-1.2.1-2.4-.7-3.5l-.3-.4a14 14 0 0 1-1.2-1.5l-1-1.6-.6-.3c-.2-.1-.5-.2-.8-.3l-.7-.3c-1-.4-1.7-1-1.8-2 0-.4.1-1 .5-1.7l.3-.6c.4-.5 1-1 1.5-1.4 0 0 .1 0 .1-.1.1 0 .1-.1.2-.1 2-1 4-1.5 6.2-2h.1l.6-.1c.3-.1.7-.1 1-.1h.3l2 .3c1.2.2 2.3.5 3.4 1h.3c1.5 1.5 1 3.2.7 5-.1 1-.8 2.3.5 3 .1.1.3.1.4.2 1-.2 1.7-1 2.5-1.5l.4-.3c1-.7 1.7-1.6 1.5-2.8 0-.3-.1-.6-.2-1-.7-1.5-.6-3.3-1.4-4.8l-.6-.8c-.5-.5-1-1-1.4-1.5a5 5 0 0 1-.4-.6c-.8-1.5-.4-3 .3-4.4l.2-.4c.4-.7.8-1.5 1.3-2 .3-.4.6-.7 1-1 .1-.2.3-.3.5-.4s.5-.2.7-.3c1.6-.5 3.2-.2 4.8-.4h.6l5.4-1c1.7-.3 3.3-.5 5-.4.4 0 .8.1 1.2.1h.2c2.7-.5 3.5.6 3 3.3zm46.2-102c-3.6 6-6 12.4-8.3 19-1.4 4.3-4.3 8.2-8.2 11-4.2 3-7.6 7-10.4 11.3-3 4.5-6.6 8.3-10.5 11.8-.8.5-1.4.7-1.8.7-.3 0-.6-.2-.8-.3-.7-.6-1.2-1.7-1.8-2.5l-.2-.5c-.4-1-.7-2-1-3l-.3-.6a49 49 0 0 1-1.4-3.9v-.1l-.2-.7c-.5-2 0-4 1-5.7.8-1.4 1.5-2.8 1.8-4.5v-.7c.1-.3.3-.6.4-1 .3-.5.7-1 1-1.3l.1-.1c.1-.1.1-.1.2-.1 1-.4 2.4-.1 2.8-1.3.1-.3.1-.6.1-1 1.3-1.4 2.8-1.3 4.4-1 .4.3 1 .5 1.3.7 1 .4 2 .4 3 0 0 0 .1 0 .1-.1.3-.1.5-.3.8-.5.1 0 .3-.1.4-.2.1 0 .1-.1.2-.1a9 9 0 0 0 2.1-2l.6-.7c2.6-2.3 4.5-5 6.7-7.7l.3-.4c.6-.7 1.3-1.3 1.5-2.2.1-.4.1-.8-.1-1.2a6 6 0 0 0-.5-.3c-1.6-1-3.4-1-5.2-1h-.4c-.5 0-1-.1-1.3-.3-.1-.1-.2-.2-.3-.2-.7-.5-1.4-1.2-2.2-1.3-.3 0-.5 0-.8.1h-.2c-.2.1-.5.4-.8.6-3.6.6-4.2-2.3-5.3-4.6l-.6-1.2-1.3-2.3c-.2-.4-.4-.8-.5-1.3 0-.1 0-.1-.1-.2v-.2c0-1 .3-1.7 1-2 .1 0 .1-.1.1-.1.3-.2.6-.3 1-.3.1 0 .3 0 .5-.1 10.3 4.8 19.3 1.3 28-4.5.8-.5 2-1.5 2.5-.3 1 2.6 4.7 4.7 2.8 8zm-3.6 118.3c-6.5 4.6-4.7 12.2-7 18.3-2.4 6.7-5.7 13-8.6 19.6-2 4.3-6.8 7-11.3 6-1.4-.2-2.5-.8-3.3-2-1.8-2.6-1.5-11.8.4-14.3 2-3 3.5-6 3.2-9.7a77 77 0 0 1-.2-8.5c.1-3.5.2-6.6 5.4-6.2 2.5.2 4.8-2.2 6.6-4 2.4-2.5 4.7-5.3 7.8-7 3-1.5 1.8-4.4 2.8-6.8 4.4 4 3.6 9.5 4.2 14.5z" class="HKovECOc_6"></path><path d="M256 173c0 1-.3 2-1 2.6-4.3 2.6-5.2 6.8-6 11.3-.5 1-1 1.3-1.7 1.3-.1 0-.2-.1-.3-.1-.3-.2-.6-.5-1-1-.7-1.3-2-1.5-3-2.2-2.6-4.5-8.2-5.7-11-10-2.3-1-2.2-3-2.6-5l-.6-.5c-.4-.2-.7-.3-1-.3-.5.1-1 .4-1.5 1H225c-.5-.1-1-.2-1.2-.5-.1-.1-.2-.2-.3-.2-.2-.2-.4-.5-.5-.8v-.1c0-.2-.1-.3-.1-.5v-2.2c.1-.5.2-1 .4-1.5.4-.4.6-1 .8-1.3.8-2 .5-4 1-6l.4-1.7c.2-.8.2-1.7-.5-2.4-.2-.2-.3-.3-.6-.4-1-.7-1.6-1.5-2-2.5-.1-.3-.2-.5-.2-.8v-.1c0-.7.2-1.3.6-1.8 0-.1.1-.1.1-.2.1 0 .1-.1.2-.1 1-.6 2.3-.5 3.5-.5.7 0 1.4-.1 2-.4h.3c.6-.2 1.2-.2 1.8-.1l1.3.4c.8.3 1.6.6 2.5.7h.6c1 .1 1.7.5 2.4 1a5 5 0 0 0 .8.7c1 .8 2 1.2 3 1 .5-.1 1-.4 1.5-1 1.8-1.2 3.4-2.6 5.6-3.2.1 0 .2 0 .4-.1.6-.1 1.3-.1 2 0 .5.1 1 .2 1.4.4l.4.3c.1.1.2.1.2.2.1.1.1.2.2.2.4.5.6 1 .6 1.7 0 .2 0 .5-.1.7v.6c-.4 1.6-1 3.2-1.7 4.7 0 .1-.1.1-.1.2s-.1.1-.1.2c-1 1.8-1.2 3.7-.8 5.7v.2c.3 1.5.5 3 1.6 4.3 0 .1.1.1.1.2.5 1 .8 2 1 2.8v.1h.1c.6 1 1.2 2 1.6 3 .1.3.3.6.4 1s.3.8.4 1.2zm-112-14.2c0 .1 0 .2-.1.3-.2.6-.6 1-1.2 1.2h-.1c-.4.2-.8.3-1.4.3h-.3L133 159c-.1 0-.2 0-.4-.1-.2 0-.5-.1-.7-.1-.1 0-.2 0-.2-.1h-.2c-.1 0-.1 0-.2-.1-.2-.1-.5-.1-.7-.2-.3-.1-.6-.1-1-.1-.8-.1-1.7 0-2.5 0h-4.4c-1 0-2.2-.2-3.2-.7-.3-.1-.6-.3-1-.5-2.8-4.7-7-8.5-8.4-14 0-.1 0-.1-.1-.2.1-.4.2-.8.4-1 .6-1 1.7-1.8 2.2-3h-.1.1c1.6-1.2 3.5-1 5.3-1 1.8.1 3.6.2 4.7-1.7a27 27 0 0 1 4-7.5v-1.5l6-8.4c.2-.4.4-1 .7-1.2.5-.7 1.3-1 2.5-.7l.4.4c.1.1.2.2.2.3 1 1.4 1.8 3 2.4 4.5v.6s0 .1.1.2c0 .4-.1 1-.3 1.3-.1.1-.1.2-.2.3-.4.4-1 .6-1.6 1-.4.3-.6.6-.4 1.3l.2.5c1.2 1.4 3 2.5 3.3 4.5.1.3.1.6.2 1 .1 1 0 2-.2 2.8-.1.6-.3 1.2-.6 1.8l-.4 1a4 4 0 0 1-.5 1.2c0 .1-.1.1-.1.2l-1 1.4c-.4.8-.6 1.6-.3 2.5l.1.3.2 1c.6 2 1.5 3.7 2.5 5.5l.1.1 1.5 3.2c.3.7.8 1.4 1.2 2l.7 1c.1.8.1 1.4 0 2z" class="HKovECOc_7"></path><path d="M154.8 154.3l-.2 1c-.6 2.2-1.8 4.3-2 6.6-.3 3 .3 6.3-.6 9.4a3 3 0 0 1-.9 1.2c-.4.2-.7.4-1.2.5-1.2.4-2.4.6-3.3 1.6-.1.1-.2.2-.2.4-.8 1.3-1 3-1.8 4.3-.2.3-.4.6-.6 1-1 1.8-1.5 3.8-2.2 5.7l-.6 1.4c-.2.4-.5.8-.8 1-.2.1-.5.3-.7.3l-.5.1c-.7.1-1.5-.1-2.2-.4l-1-.5c-.3-.1-.7-.2-1-.2-.4 0-.8.1-1.2.5-.2.1-.4.3-.6.4l-.5.3-2.3.5c-.2 0-.4.1-.6.2-.5.1-1 .3-1.4.6-.6.3-1.2.6-1.8.6-.5 0-1-.1-1.4-.4l-2.8-4 .3-.8c.3-.5.8-.8 1.4-1 1.6-.7 2-1.8 1.3-3.2l-.4-.6c-.2-.4-.2-.8-.2-1.2.1-.3.3-.6.4-1 .2-.4.5-.6.8-.8 1-.6 2.3-.4 3.5-.3l1 .2c1 .2 2.2.3 3.2-.3l.7-.4c.1-.1.1-.2.2-.3 1.4-2 1.5-4.2.3-6.4v-.1s0-.1-.1-.1c-.8-1.2-.7-2.3-.2-3.3.2-.3.3-.6.5-1v-.1c.1-.1.1-.2.1-.4.2-.8 0-1.6-.3-2.4-.1-.4-.2-.7-.3-1v-.3c0-.2 0-.4.1-.6l.4-.7c.1-.1.3-.2.4-.3h.4c1.8-.4 3.4.1 5 1 .1 0 .3.1.4.1h.4c.5.1 1 0 1.3 0h.1c.6-.2 1-.6 1.2-1.2 0-.1.1-.2.1-.3a9 9 0 0 0 .3-2.4v-.4l.3-1 .4-1c.1-.3.2-.6.4-.8.4-.6.8-1.2 1.4-1.6.3-.2.6-.4 1-.5 2-.1 4.3-.8 5.7.3.6.5 1 1.4 1.3 3zm-94.5-25a20 20 0 0 1-.2 2.4 5 5 0 0 0-.3.6c0 .1-.1.2-.1.3l-.4 2.2-.1 1.7c0 1-.1 1.7-.4 2.6-.1.4-.3.7-.5 1l-.6.8L40 143c-.4-.4-.7-.8-1-1.3-.1-.2-.3-.5-.4-.7-.8-1.4-1.3-3-2.2-4.3v-.1l-1-2.4c-.2-.7-.2-1.4.1-2.2l.2-.5c0-.1.1-.2.1-.2.1-.3.3-.6.5-1h.1a11 11 0 0 0 1-2.8c.1-.2.1-.4.1-.6.1-.6.1-1.3.1-2s0-1.4.1-2c0-.3.1-.5.1-.8 0-.1 0-.2.1-.3.1-.4.3-.7.5-1 .3-.4.6-.7 1-1 .3-.2.7-.4 1-.5.1 0 .3-.1.4-.1l.2-.1c.8-.2 1.7-.5 2.5-.5.5 0 1 0 1.4.1.2 0 .3.1.5.1h.1c1 .4 1.4 1 2 1.8.1.1.3.3.5.4l.2.2.4.3c1 .5 2 .8 3 1 0 0 .1 0 .2.1.2 0 .4.1.6.2 1 .3 2 .4 2.8.5l2 .4c.8.3 1.5.7 2 1.4l.1.1c.1.2.2.3.3.5.1.3.2.6.3 1v.2c.2 1 .2 2 .2 3z" class="HKovECOc_8"></path><path d="M37 131c0 0 0 0 0 0 0 0 0 0 .1 0H37z" class="HKovECOc_9"></path><path d="M38.7 118.2l-.1.3c-.1.1-.1.2-.1.3l-.5 2.6v4.7c0 .3-.1.5-.1.8l-.8 4-1.4.8a10 10 0 0 1-1.8.9c-1 .4-2 .3-2.8-.5a9 9 0 0 1-1.3-1.5l-.8-1s0-.1-.1-.1c0-.1-.1-.2-.1-.4-.1-.2-.2-.4-.3-.5-.6-.8-1.7-1.3-2.4-2l-.5-.5c-.4-.7-.5-1.5-.8-2.4-.2-.7-.6-1.4-1.4-1.8h-.2c-2.7-1.5-4.6.4-6.7 1.4-.3.1-.7.3-1 .4l-.5.1c-3-2-4.7-5-7-7.8 0-.5.2-1 .4-1.2.2-.3.4-.6.7-.8 1-1 2.8-1 4-2l1-1.7c3-1.6 6-1.8 9.3-1.7.8 0 1.6.1 2.4.1.4 0 .8 0 1.3.1l4-.2c1 0 2.2 0 3.3.4l.7.2c.2.1.3.2.5.3l.1.1c.2.1.3.3.5.4 1.6 1.5 2 3.6 2.8 5.7v.1c.1.7.1 1.5 0 2.2zM76 135l-.5 3.5c-.1.3-.1.7-.2 1L75 141c-4.5 1.6-9 4.4-14 1-.5-.5-1-1-1.4-1.6-.3-.5-.6-1-.7-1.4-.7-1.8-.5-3.7.5-6l.3-.6.1-.3c.3-1 .3-1.8.3-2.7v-5.6c.5-2 1-4 3-5.2l1-.5c.7-.2 1.4-.4 2-.4 1.2-.1 2.3 0 3.5.3h.4c2.4.7 4.2 2 5 4 .3.7.4 1.6.3 2.5v.5a18 18 0 0 0 .3 4c.1.3.1.6.2 1 0 .1 0 .2.1.3.2 1.6.1 3.2 0 4.8zm58.2 42c-1 .5-2.2 1-3.5.6a38 38 0 0 1-.5-.1h-.2c-2-.4-3.5-.6-4.3-.3-.4.1-.7.4-.8.8s-.1 1 0 1.8v1 1c-.8 1.7-1.8 3-3.4 3-.6 0-1.2-.2-2-.7-5.5-5.8-2.5-12.4-2-18.8.2-.3.4-.6.7-.7.2-.2.5-.3.8-.4s.6-.3.8-.4.4-.3.5-.5l.3-.5.3-.6c.2-.4.3-1 .4-1.3.3-.8.6-1.6 1.2-2.2s1.4-1 2.6-.8c.2.1.5.2.7.2.4.1 1 .1 1.4.2l2 .3s.1 0 .1.1l.6.3c.2.1.4.3.5.4l.6.5 1.3 1.4c.1.2.3.3.5.5l1.2 1c.6.5 1 1.2.8 2.2l-1.3 1.6c-.7 1-1 2.2.2 3.4h.1l.5.5c1.6 2.5.5 4.7-.8 7zm-8.6-155.5c.1 1-1 2-1 3l-.3.6c-.7 1.2-1.2 2.5-2 3.6-.4 1-1.2 2-2.3 2.3-.6 1-1 2-2.2 2.2-.2 0-.5 0-.8-.1h-.3c-.3-.2-.5-.5-.6-.8-.6-1.2-.1-2.8-.6-4 0-.1-.1-.2-.2-.4-.3-.8-.6-1.7-.7-2.5V25c-.3-1.8-1.5-3-2.3-4.6v-.1c-.1-.1-.1-.3-.2-.4h0c-1-1.8-.8-3.7.3-5.5v-.1c.2-.4.5-.7.7-1l.1-.2c.8-1 1.2-1.8 1.5-3h0l.3-2.3v-.3c0-.6.1-1 .3-1.6 0-.1.1-.2.1-.3.2-.6.5-1 .8-1.6 2.7-1 5.7-3.8 7.6.6l.2.5c-.4 3.4 2.2 7-1.3 10.3-1.4 1.3 1 3.4 2.4 4.7.4.4.7.8.8 1v.3z" class="HKovECOc_10"></path><path d="M257 109l-.6.8c-1 .8-2 .5-3 0l-.5-.2s-.1 0-.1-.1l-8-6c-.3-.2-.5-.4-.8-.6-1-.6-2-.7-3-.2-.1 0-.1 0-.1.1l-1.6.7h-1.5c-1.3-.3-2.7-.3-4-.5-.4-.1-.8-.2-1.3-.4-.3-.2-.6-.5-.8-.8-.1-.1-.1-.2-.2-.2v-.2c0-.1-.1-.2-.1-.3a6 6 0 0 1-.1-1.4v-.3l1-7.3c0-.1 0-.2.1-.3l.1-.2c.7-1.4 1-3.2 2.5-3.6.3-.1.6-.1 1-.1s.8.1 1.3.3c4 6.8 11 10.6 16.5 15.8 1.5 1.5 3.6 2.6 3.6 5zM38.8 141c0 .3-.1.5-.4.7-.5.4-1.6.4-3.4.5-5.2-.4-7.8-5-11.8-7.2-.4-.7-.5-1.3-.4-1.8.1-.3.2-.6.5-1 .6-.7 1.7-1.2 2.2-2 .2-.1.3-.2.5-.3v-.1c.2-.1.3-.3.5-.4.5-.4 1-.8 1.8-.7.2 0 .4.1.5.1s.1.1.2.1.2.1.3.2l.3 1.6c.3.7.7 1.2 1.4 1.5.3.1.6.2 1 .2.7 0 1.2.1 1.7.3.7.3 1.3.7 1.7 1.3.5.6.8 1.4 1.2 2.2 0 0 0 .1.1.2l2 4.6z" class="HKovECOc_11"></path><path d="M26.5 129.5l-.3.6-.3.3c-1 .8-1.7 1.6-2.7 2l-1 .2c-.6 0-1.3-.1-2-.5l-4-5a11 11 0 0 1 0-2c.1-.6.2-1 .4-1.6.8-2 3-2.3 7-1.8.2.1.4.1.5.2 1.7 1 1.3 2.8 1.6 4.3v.3l.2.3c.5 1 1 1.8.6 2.8zm119.3 64.3c-.1.1-.2.1-.4.1h-.1l-12.3-.7c-1.6-.1-3 0-3.5 1.4-.2.4-.2.8-.2 1.4-1.6-1.7-3.6-3.3-4.2-5.8.4.1.8 0 1-.2.5-.3 1-.8 1.5-1 1-.3 1.8-.6 2.6.3v.3c.3 1.3 1.3 1.3 2.5 1.3H143c1.3.1 2.5.3 3.3 1.5.1.7.2 1.3-.4 1.5zM195.3 28c-3.8 1.5-7.8 1-11.7 1H181c-2.7.5-3.7 2.2-2.8 5.8-.1.1-.2.2-.3.2s-.2.1-.2.1c-.2 0-.4-.1-.6-.2-1.8-2.5-.5-4.6.6-6.7l.6-1.2c5.6 2.3 11.4.2 17 1zm15 257.4l-.6-.3c-.1 0-.1-.1-.1-.1l-.3-.3c-.7-1-1.5-1.8-2.7-2.2l-.5-.4h0c.3-2.8 3.4-4.8 2-8l.6-1c.1-.1.2-.2.4-.2h.1c1.2 1.7 1 3.7 1 5.6.1 1.7.1 3.6 2 4.2.2.1.4.1.7.1.7 2.5-2.2 1.2-2.7 2.6zm35.8-70.2c0 .3 0 .6-.1 1l-.2.1a28 28 0 0 1-11.8 1.7h-.1c-.2-.1-.2-.2-.3-.4v-.2c.1-.2.2-.3.3-.3l3-1c1.7-.8 3.6.1 5.3-.8l3.8.1zm18 2.6c-.2 1.3-.5 3.2-2 2.8-2-.4-1.6-2.6-1.6-4.2 0-1.2.4-2.3 2-2.3 1.7.7 1.8 2.2 1.6 3.7zM79.4 134.4c-.1 1-.3 2-.7 2.8l-.4 1c-.1.3-.2.6-.2 1-1 .5-1.7.4-2 .2-.2-.2-.4-.4-.5-.7-.2-.5-.2-1.2-.2-2 0-1.8.5-3.6.3-5.4v-1.7l.1-.3a2 2 0 0 1 .5-.7c.1-.1.3-.2.4-.3s.3-.2.5-.2h.3c.2.1.4.1.5.2.3.2.6.4.8.8l.3 1.3a16 16 0 0 1 .4 4.3zM247 199c.1-2.7.5-5.5-.1-8-.5-2.2-1.5-4.2-4-6 1-.4 1.5-.2 2 .3.8.7 1.5 1.8 2.5 2 .4.1 1 0 1.4-.3-2 3.8.4 8.3-2 12z" class="HKovECOc_12"></path><path d="M128 157.2c0 .4-.1.6-.2.8s-.2.3-.3.4c-.3.1-.6.1-1 0l-.8-.2c-.6 0-1 .1-1.4.3-1.7 1-.4 4-2.3 5-.3-.2-.6-.5-.8-1-.5-.8-.8-1.8-1.3-2.5a3 3 0 0 0-.9-.9v-1.8h9zM24 121.7v.1c-.3.1-.6.1-.8.1-2.8.3-6.4-.5-7 3.2-.1.5-.1 1-.1 1.8-1.4-.7-1-2-1-3.2l.3-.4c2.2-3.2 5-4 8.8-2.2v.5zM84 138h-5.8l-.4-10c.1-.1.2-.1.3-.1l.4-.2c.1 0 .2 0 .3.1s.2.1.3.2l.4.4c.2.5.3 1 .4 1.4.2 1.5.1 3 .6 4.4.5 1 1.3 1.5 2.3 1.8h.1l.5.3a2 2 0 0 1 .3.2l.1.1c.1.1.1.2.1.3.1.3 0 .6-.2 1zm177.3-24c-.1.3-.4.5-.6.7-.1 0-.1.1-.1.1-.3.2-.7.3-1 .4-2 .7-3.3-1-4-2.7v-.5c0-.8.5-1.4 1.2-2 .1-.1.2-.1.4-.2 1.7-.2 2.6 1.3 3.8 2 .7.8.8 1.5.5 2zM78 139c-.7 1.3-2 1.5-3 2-.2-.4-.3-.8-.4-1.2-.8-3.2.8-6.5.4-9.8.2-.2.5-.3.7-.2.1 0 .2.1.3.2 0 1.6.1 3.3.1 5v1.5c0 1 0 1.8.6 2.2.3.2.8.3 1.5.3zm-38 4c-1.7-.1-3.6.8-5-.8 1.4-.1 2.2-.2 2.7-.5 1.8-1-1.4-3.3-1.4-4.7 0-.2.1-.3.1-.4s.1-.2.2-.3.2-.2.3-.2c1.7 1.6 3 3.4 3 5.6v1.3zm18-3c.2-2.7-1.5-5.6 1.2-8 .3-.1.6 0 .6.2v.5l-.5 2c-.1.6-.1 1-.1 1.7.1 1.4.4 2.8 1 4.2.2.5.4 1 .7 1.4l-3.2-1.2c.1-.3.1-.6.2-1zm179-52c-.4 0-.8 0-1 .1-1.8.4-2 2.6-3 3.8-.2.1-.4.1-.5.1s-.3 0-.4-.1c-.4-.1-.6-.5-.7-1 .2-2.2 2.8-3.2 3.5-5.2.2-.5.3-1 .1-1.8 1.4 1 1 2.8 2 4z" class="HKovECOc_13"></path><path d="M262 114.4l-2 2.6c-.1.1-.3.2-.4.3s-.2.1-.4.1c-.1 0-.2.1-.3.1h-.1c-2.5-.7-4.2-2-4.3-5 .1-.2.2-.4.4-.5.1-.1.2-.1.3-.1h.4c1.6.5 3.2 6 5 1 .1-.3.2-.7.3-1 1 .4 1.3 1.3 1.3 2.3zM122 164c-1 .4-1.7.3-2.5.1a3 3 0 0 1-.8-.4 6 6 0 0 1-.8-.6l1-4c.4-.1.7-.1 1-.1 1.5 0 2 .7 2 1.7s-.2 2 .1 2.8c.1.2.1.4.1.6zm30.6 128c-2 .8-4-.6-6 .4-.2.1-.5.3-.7.5l-2-2c.5.1 1 .1 1.5 0 2.3-.4 4.7-2 6.6.7l.4.5zM224 70c-.3.1-.6.3-1 .3-2.5.8-5-.3-7.3-1l1-.5c1-.5 1.7-.8 2.6-1 .5-.1 1-.2 1.5-.1.6 0 1.3.2 2 .6l1 2zm-92.6 172.7c0 .2-.2.3-.4.5l-.6.4c-1 .6-2.2 1-3.4 1.2l-1 .3c-1-1.6-1.8-3.3-.2-5 0 1.5.3 2.3.7 2.6 1 .8 3.2-1 4.5-.6.3.2.5.4.4.6zm141-22.7c-.2 1.3-.6 2.5-2 3-1-.1-1.5-1-1-1.7.4-1 .2-2.8 1.7-3.2 1.2-.3 1.6.8 1.5 2zm-5 .4c-.3 1.4-.3 2.7-1.7 3-1.3.3-1.6-1-1.6-1.8-.1-1 .2-2.4 1.5-2.6 1.3-.3 1.5.8 1.7 1.5zM13 112l-5 4c-1-.8-1.6-2-1.8-3.4.5.4 1 .6 1.4.6 1.8.2 3.5-2 5.4-1z" class="HKovECOc_14"></path><path d="M124 185l-1.7 1c-1-.4-1.8-1-2-2 .5.1 1 .1 1.4.1 1.6-.2 2.7-1.2 3.4-2.7-.2-.4-.3-.7-.2-1 0-.1.1-.2.2-.3s.1-.2.2-.2l1 .3c1.3 2.5-.2 3.8-2.2 5zm99-117c-.6-.2-1-.2-1.6-.1-1 .1-2 .6-3 1-.7.2-1.4.4-2 .3h-.2c.1-.2.2-.5.3-.7 1-1.6 2.5-1.8 4-2l.7-.2 2 2zM26 131c-.4 1.2-2 1.6-2.7 2.7-.2.3-.2.8-.1 1.3l-3.2-3c.6.2 1.2.2 1.7.1 1.6-.3 2.8-1.6 4.2-2.4a1 1 0 0 1 .2.1c.1.1.1.2.2.3.1.3.1.6-.2 1zm232 39.7l-2 2.4-.6-.8a10 10 0 0 1-2-4.3l.2-.2c.3-.2.6-.2 1 .1 1 .7 1 2.4 2 3 .4.1.8.1 1.3 0zM127.4 20.2l-2.6 4.8c-.2.3-.4.3-.6.2-.1 0-.2-.1-.3-.2 0-.1.1-.3.1-.4.3-1.2 1-2.3 1-3.6 0-.3-.1-.6-.2-1h2.5zM257 110c-.1.1-.1.2-.2.3l-1.3 1.8h-.6c-1.7-.2-2-1-2-2.4v-.6c1-.5 2 .4 3 .4.3 0 .6-.1 1-.4.1.3.1.7 0 1zm-135 54c-.7 1.4-2 1.2-3.2 1.2h-.8c-.1-.7-1-1.3-.1-2l4 1zm-9-25c0 .5-.1 1-.2 1.3-.4 1-1.3 2-2.4 2.7H109l.3-.6c.8-1.5 2-2.6 3.7-3.4z" class="HKovECOc_15"></path><path d="M85 138c-.3 0-.6 0-1-.1 0-.3 0-.6-.1-1l-.3-.5a3 3 0 0 1-.4-.8l-.2-.4c-.2-.7-.3-1.3 0-1.8.1-.2.3-.4.6-.6l.1-.1c.3-.2.6-.4 1-.5l.2 5.8zm125.2 147.4l-.2 1.8-1 .1c-1.2.1-2.4.1-3.3-1 .3-.4.6-.7 1-1 0 0 .1 0 .1-.1h.7c.6-.2 1.2-.3 1.8-.2h.4l.4.2.2.4zM124.7 62v.4c0 .4-.1 1-.3 1.3-.2.6-.5 1.2-.8 1.8l-.4.7c-.1.2-.2.3-.3.5-.3.4-.7.8-1 1-.5.4-1 .7-1.7 1h-.1c-.1 0-.2.1-.2.1l-4.7 1.6c-.1 0-.1 0-.2.1l-.5.1h-.1l-1.7.7-.6.4c-.1 0-.1.1-.2.1-.3.2-.6.5-1 .8-.2.2-.3.4-.5.5l-4.6 4a9 9 0 0 1-1.1.8L96 82.7c-.1 0-.2.1-.3.1-1 .3-2 .4-3 .2H92c-3.4-1.5-6.2-4-9.2-6.2L82 76c-.7-.7-1.4-1.3-2.3-1.8-.1 0-.2-.1-.2-.1-.1 0-.1-.1-.2-.1-1-.6-2-1.5-3-2.2h-.1c-1.2-1-2.5-1.7-4-2.4l-1-.4c-2.2-1-3.8-3-5.7-4.4-.3-.3-.5-.7-.8-1-.7-1-1.5-1.7-2.5-2.4-.3-.2-.6-.4-1-.5-1.6-1.5-3.5-2.6-5-4.2l-2.2-3c-.8-1-1.7-2-2.7-2.7L46 46a9 9 0 0 1-.9-1.2c-.6-1-1-1.8-1-2.8 0-.2-.1-.5-.1-.8v-.5c0-.4 0-.8.1-1.2 0-.1 0-.3.1-.5l.3-1.6c0-.1 0-.2.1-.2 1-2.2 3-3.7 5.3-4.3a21 21 0 0 0 1.1-.2l4.3-1a25 25 0 0 0 5.2-1.7 9 9 0 0 0 .8-.4c1.2-.7 2.3-1.5 3.2-2.5l.4-.5c.7-.6 1.4-1 2.3-1 .3.1.5.1.8.1 1 0 2-.4 3-1a11 11 0 0 0 1.2-1c.6-.3 1.2-.5 1.8-.7l1.2-.3a4 4 0 0 0 1.9-1.2c.1-.1.2-.2.2-.3.4-.7.4-1.4-.1-2-.1-.1-.3-.2-.4-.3-1-.5-2-.5-3-1-.3-.1-.5-.2-.7-.4-.7-.6-1.2-1.3-1-2.4l.3-.3c.8-1 2-1.7 3-2.5l1-1c12-6.6 25.3-4.5 38-6 .4.2.7.5 1 .7h0c.4.6.5 1.3.2 2.2 0 0 0 .1-.1.1l-.3.6c-.2.4-.3 1-.5 1.4v.1c-.3 1.3-.6 2.6-1.4 3.7v.1c-1.6 1.7-2 3.6-.8 5.7 0 .1.1.1.1.2.8 1.8 2 3.4 2.7 5.3l1 1.3a17 17 0 0 0-.1 5.5l.6 3c-.1.7 0 1.4.2 2l.3 1.3c.1.5.1 1 .1 1.6v9.6a41 41 0 0 1 0 1.1c0 2.5.1 5 1 7.4l.1.4s.1 0 .1.1c1.7 1.3 3.8 1.2 5.7 2 .1.1.1.2.2.3h.1c.2.3.3.6.3 1z" class="HKovECOc_16"></path><path d="M51.8 95.5c-.2.3-.6.6-1 .8-.1.1-.1.1-.2.1-.2.1-.5.3-.8.4-.6.2-1.2.3-1.7.4-1.4.2-3 .1-4.3.2h-1.2c-4 0-7.8.1-11.7-.1l-2.4-.1c-.1-.1-.1-.1-.2-.1a3 3 0 0 0-1-.4H27c-.4-.1-.8-.1-1.2 0-1.3.1-2.6.5-3.8.4-.7-.1-1.4-.3-2-1-1.2-3-3.3-5-5.7-7-2-1-4-.3-6.2-.6-.6-.1-1.2-.1-1.6-.2h-.1c-.7-.3-1-.8-.4-2.2.2-.2.3-.5.2-.8 1-4 .3-8 .4-11.8s.3-5.4 2.2-6H9c.6-.2 1.3-.4 2.2-.5l2-.2c1-.1 2 0 3-.4 1-.2 2-.3 3-.2 2.2.3 2.6-.8 2.8-2 .2-.7.3-1.5.7-2l.1-.1c1-1.5 2.8-1.5 4.3-2 .5-.2 1-.5 1.4-1l1-1.3c.8-2.4 0-5 1-7.3 0 0 0-.1.1-.2l.1-.2c.4-1.5 1.4-2 2.4-2h1.3c3 .6 6.3 1 9.4-.2.1 0 .1 0 .2-.1.4-.1.6-.3 1-.5.5-.3 1-.7 1.4-1 .4-.2.8-.3 1.4-.3l2.7 2c.8 1 1.2 1.7 1.5 2.7a10 10 0 0 1 .3 2.8l.7 39c.1 1 0 2-.7 2.8zM78.2 21c-1.5 1-3 2.4-4.8 3h-1c-1.8 1.2-3.7 2.3-6 2L61 30c-.1.1-.2.2-.3.2l-.1.1-6.4 2c-1.7.2-3.3.6-4.7 1.6-2 0-3 1.8-4.4 3-1.2.3-1 1.8-1.7 2.5h-.1l-.1.1-.2.1-1.5.5c-2 .4-4 .1-6 .2l-2.8-.2c-.7-.1-1.3-.4-2-.8-.3-.2-.5-.4-.7-.6-.2-.3-.5-.6-.7-1 2-2.7 5-4 7.7-5.2 4-1.7 6.5-4.6 7-9 1.3-3.5 3-6 7-6.5 3-.3 4-2.4 5.2-4.8 1.5-3 3.5-5.3 7.4-2.7C67 12 71 10.7 75 11c.1.4.2.8.1 1h0c-.3 1.5-2.4 1.6-3 2.8l1 1.4c1 2 4 .5 5.3 2.6 1 .6 1 1.3 0 2z" class="HKovECOc_17"></path><path d="M44.7 47.3c-.1.2-.2.5-.4.7H44c0 0-.1 0-.1.1-3 1.3-6 1-9 .5-.3 0-.7 0-1-.1h-.4c-1.2-.2-2.4-.3-3 1-.1.1-.1.2-.1.3l-.1.2c-1 3 .4 6-.7 9-.2-.1-.3-.1-.5-.1-1.6 2.2-4.8.6-6.4 2.8l-.1.2c0 0 0 0 0 .1-.6 2 1 5-3 5h-2.4a19 19 0 0 1-8.5.3c0 0 0 0 0 0-.5-.1-1-.3-1.5-.5a161 161 0 0 0 14.3-22.1c1.2-2.3 3-4 5.5-4.7 1-.3 2-.5 3-.6.5 0 1 0 1.4 0l2.3.3.6.2c.4.1 1 .2 1.3.2 2 .2 4.2-.3 6.3.2.5.1 1 .3 1.5.5 0 0 .1 0 .1.1s.1 0 .1.1l.4.2c0 1.3.5 2.6.7 4 .1.8.1 1.6-.2 2.4z" class="HKovECOc_18"></path><path d="M17.3 67c-1.6 2.3-4 1.3-6 1.2-1.8-.1-3 .3-3.6 1-.5.7-.8 1.7-.8 3.2-.1 4.3.8 8.6-.8 12.8.2-6.2-1.3-12.5 1-18.5l10 .3zM36 39.2c0 .4 0 .6-.1.8s-.1.3-.2.4c-.3.3-1 .1-1.4-.1l-.4-.1h-7l3.2-2 5.8 1.4zM14.2 89l-9 .3C5 88 4.7 87 6 86c.1.7.3 1 .6 1.4.4.3.8.4 1.3.4h1.5c.7.1 1.5 0 2.3 0h.7c.7.1 1.4.4 2 1.3zM76 12c-.1 2.2-2.4 2.2-4 3v-.3c.2-1.2 1.5-1.7 2.3-2.5.3-.3.5-.7.6-1.2h1c.1.4.1.8.1 1zm40-8v5c-.4 0-.8 0-1-.2-.1-.1-.2-.2-.2-.4V8c0-.1 0-.2.1-.3v-.2L114 5l2-1zM83.2 76a39 39 0 0 1 8.5 5.9c.5.2 1 .6 1 1-.7 4.4.5 9-1.5 13.2-.2.4-.6.8-1 1.2-3 2.2-6.6-.2-9.7 1.4-1 .4-1.7.7-2.7.7a34 34 0 0 0-6.1-.2c-1.6 0-3 .6-4.3 1.3-1.4.5-2.7 1-4 2-.4.2-.7.4-1 .5-1.2.4-2.2 1-3 2-3.8 3.6-7.7 7.2-11 11.4-1 .7-2 1-3.2 1.5-1.7.2-3 1.4-4.6 1.7-2.3.1-2-1.6-2-3-.5-2.5-1.3-4.8-3-6.8-2-1-3.8-1-5.6.4h-1.7c-3-.2-3.2-2.2-3.2-4.5V97c.6-.7 1.4-.8 2.3-.6 5.5-.1 11 1.2 16.4 0 2.3-.2 4.6.3 7-.3 4.5-2 .8-4.3.1-6.5L50.6 58c0-1.6-1-3.8 1.6-4.6 2.4-.7 3.6 1 4.8 2.6 2 1 3.8 1.8 5 3.7 1.5 1.4 3 2.6 4 4.3 2.8.1 3.7 3 5.8 4 1.5 1 3 2.4 4.6 3.4 1.3.7 2.2 2 3.7 2.4 1 .8 2 1.4 3 2.3z" class="HKovECOc_19"></path><path d="M25 105.5c1.5 1.2 1.2 3.6 3.2 4.5-4.7.1-9.5-1-14.3.4.6-3.3 3.2-2.5 5.3-2.5 2.3 0 4.6.2 5.7-2.4zm2-8.5h-2c-2.3 1.4-.3 3.7-1.4 5.8-1.3-2.5-2.5-4.7-3.6-7 2.4 2 4.7-2.7 7-.2.5.4.5.8-.1 1zm118.7 96.7c-.1-1.8-1.6-1.5-2.7-1.8-1.6-1.2-4 .7-5.2-1.3-.1-1.6 1.5-1.7 2.3-2.6v-.8c2.3-2.4 2.5-5.8 4-8.4l1-4.7c2-.7 4-1 5.6-2h.5c1-3 .2-6.2.5-9.3.8-2.6 1.4-5.3 2.8-7.6.8-2-.6-3.5-2-4.8-.1-.5 0-1 .2-1.4 1.3-2 4.3-1.5 5.5-3.6.3-.4.7-.7 1-1 1.2-.5 2.3-.5 3.5-.1.7.3 1.2.7 1.7 1.2 1.7 2.4 4 1.6 6.2 1.3 1.8-.3 3.7-.6 5.4-1.6l1-.6c2 0 3.7-.7 5.5-1.5 2.7-.5 5.3-1.8 8-2 1.7-.2 3 1.2 4.8 1h.2c1 1 2.3 1 3.6 1.4 2 .5 3.8 1.7 5.8 2.3 1.5.7 3.4.8 4.5 2.4.8 1.8-.1 3.5-.2 5.3-.2 2 .1 4-.5 6-.2.7-.6 1.3-1 1.8-1 1-2.2 1.4-3 2.6-.7 1-.8 2.4-1 3.7l-1 9.3c.1.4.1 1 .1 1.3-.3 2-.8 4 1 5.6.4.6.7 1.3.8 2-.1.6-.4.8-1 .4l-1 3.6-5.6-4c-1.4-1.2-2.5-1-4-.5-1.3.5-2 1-1.8 2.5.2 1.4 1.2 1.3 2.2 1 1.3-.4 2.4-.2 2.6 1.3.1 1 .3 2-.6 2.8-1 .7-2.3.8-3-.4-1-1.6-1.6-1.2-3.4-.4-2.5 1-2.7-1.6-2.8-3.6-.1-1-.2-2.3-1.3-2.4-1.3-.2-2.4 1-2.3 2 .3 5.4-6 1-6.7 4.7-2.4-1-3.7-3-5-5.2-1-2 0-6-2.8-5.5-3.6 1 .5 3.7.1 5.8-.2 1 .2 2.3.4 3.4.5 3 2 7-3.8 3.6-2.2-1.3-3.3.3-3.7 2.5-1.6 1.5-4.2 2-5 4.3-.1.3-.3.5-.5.7-2.6 0-5.2-.8-7.8-.5-3-2-1-5.2-2-7.8zm-5.7-62.2l-4-3.4c-.5-2 1-2.4 2.2-3 2-.3 2-1.3 1-2.7-1-1.7-1.8-3.5-2.7-5.2-1-1.2-2-2.3-2.6-4-.4-1.4-1.2-2.5-1.7-3.8-.8-2.2-.1-4.3.4-6.5.5-2.4 1.8-4.5 3.4-6.4 1.2-1.2 1.8-2.6 2.2-4.2 1-3-.1-6.3 1.3-9.2.2-.4.4-1 .6-1.3 2-2.5 1.8-5 0-7.6-1-1.4-1.5-3-2-4.6-.2-1 0-2 .5-3 .8-1 2-1.6 3.3-1.8h4.5c2 .7 3.7 2 5.4 3.3 1.5.5 2.8 1.2 4 2l4 2c1 .7 2 1.4 3.3 1.4 3.5 2.4 6.6 5.3 10.6 7 5.5 1.8 3 6.4 3.6 10 0 1.7.2 3.3 1.3 4.7.7 4-1.8 4.5-5 4.3-.6-1.4-1-.3-1.5.1-.6 1-1 2.2-1.7 3.3-.6 1-.8 2-1.3 3-1.2 1.6-1 3 .1 4.7 1 1 1.7 2 2 3.5 0 2 .1 3.8-1.5 5.3-.8 1-1.7 1.7-2.8 2-2.4.5-4.6 1.6-6.8 2.7-1.6.7-3 1.5-4.2 2.8-.3.3-.7.5-1 .8-1.7 1.2-2.3 3.4-4.3 4.2-1.6.8-3.4 1-5.2 1-1.6 0-3.3.1-5-.5-.5-.3-.8-.7-1-1.3z" class="HKovECOc_20"></path><path d="M253 109c.7 1 .5 2.4 1.8 3 .8 2.2 2 4 4.2 5 1 1.5 2.2 3 4 4 1.2 2.2 1 5.7 5.2 5 1.6-.5 3 .1 4 1h.3c2.5-.4 4.7 1.7 7.3.7 2 2.7-1.4 3.6-1.7 5.5-1.7 3.3-3.5 6.4-7.2 8-1 1-2 2-3.2 2.5-1.5.4-3 1.8-4.5.5-1.7.2-3.7-.7-5 1-.5 1.4-1.7 1.4-3 1.5-.7.2-1.3.2-2-.1-1.6-2-3.4-1.6-5.2-.4l-5 3c-2.3 1.6-4 .1-5.7-1l-1.5-1c-1.5.2-2.7-.7-4-1.3-2.3-.8-3-2.7-3.7-4.7l-5-4-2-1.8c-.6-1.5-2.2-2.2-2.4-4-.6-.7 2-2-.5-2.2-5.8-9.6.7-12.7 10-16.5.2-1.8 1.6-3.2 1.8-5 .2-3.6 2.2-4.6 5.6-4.4 1.2.1 2.5 1 3.6-.1.1-.3.3-.6.5-1 2 .2 4-.5 5.6 1 3.2 1.3 6 3.2 8 6zm-86.3 12.2c1-.4 2-1.2 2.4-2.3 2-.4 3.3 1.2 5 2v.8c.2 1.8 1 3.5 1.3 5.3.1 1.5.6 3 2 3.7.8.5 1.6 1 1.6-.6 2-.1 3.5.2 4 2.5.4 1.7 1.5 2.7 3 3.5 1.5 1.4 3.7 2.2 4.3 4.5-2.2 2-5.2 2-8 3-1.7.7-3.5 1.4-5.4 1.5v1c-2.5.7-5 .8-7.6 1.6-2 .2-4 .8-5.4-1.4l-1-1c-1.3-1-2.7-1-4 0l-.2 1.3c-2 1-4.5.7-6 2.8v.7c-.2.4-.5.7-1 .7-1.7-.1-3.3-.7-5 .3l-1 .8c-1 .7-.6 2-1.4 2.8-1.3.4-2.3 0-3-1-.8-1-1.2-2-1.6-3.2-.7-1.8-2-3.3-2-5.4-.1-1.5-.4-3 .1-4.5.2-.5.5-1 .8-1.3v-.7c.8-2 2.8-3.7 2-6.3l5.2.2c1.8 1.6 3.2.3 4.7-.5 2.6-.5 2.4-3.5 4.2-4.7h.7c1.3-1.3 3-2 4.7-2.7 2-1.2 4.2-1.8 6-3z" class="HKovECOc_21"></path><path d="M239 103c-.7 1.2-2 1.4-3 1-3.4-.7-5 1-5.8 4-.4.5-.7.5-1 0l1-7c1-.5 1.3.4 1.7 1h.1c2 1 4-.3 6 1h1zm-41 39l2.2-1c4-2 4.8-.4 3.8 3.3-1.5 1-2.8-.1-4.2-.4-.7-.5-2-.3-1.8-1.8zm-24-21c-2 .5-3.2-1.5-4.8-2 1.8-1 1.8-3 1.8-4.7-.5-1 .1-1.2 1-1 1 2.6-.1 5.6 2 8zm49 26l.2 2.4c-2.3.3-5 1.3-6.7-1.3 0-.5.2-1 .7-1.2l4.6-1.2c1-.3 1.4.2 1.2 1.2z" class="HKovECOc_22"></path><path d="M207 71c2.4-1.2 5-1.8 7.7-2-1.2 3-4 2.6-6.6 3-.4-.4-1-.5-1-1zm10.3 76l-.6 1c-.3 1.4-1.4 1.6-2.5 1.5l-3.2-.7c-.4-.1-.8-.3-1-.6-.4-.7-1.3-1.2-1-2.2l8.5 1zm5.7 0l-1-1c1.8-1.6 4-.7 6-1 .7.2 1 .6 1.3 1.3-1.8 1.7-4 .5-6 1z" class="HKovECOc_23"></path><path d="M229.2 146l-1.3-1.3c.1-1.3-1-2.6.1-3.8 1.5 1.2 2 3.4 4 4 .1 1 0 1.5-1 1h-1.7zm-30.6-75h4.5c1 .8 2.4-.2 3 1-2.7.5-5.6 2.5-7.6-1.2zm32.7 20l1.6 1-1 8c-2.3-.5-1-2-1-3.2l.5-5.7zm-40-21c2.2.3 4.7-.5 6 2.2h-4l-3.2-1c-.1-1 .1-1.4 1.2-1zm-22 41c-2.6-1.6-2-3.3-.2-5 .4.2.7.5.8 1-.5 1.4-.2 2.7.6 4-.3.4-.7.5-1.2.1zm30.8 32.2l4 1 1 1c.3.4.2.8-.2 1-2.2-.2-4.2-1-6-2 .1-.6.7-.7 1-1zm-25-16c-.5-1.8-2.2-3.4-1-5.5 1.2 1.2 2 2.6 2 4.4-.3.4-.4 1-1 1.2zm15.2 12.5c-2.2-.3-3.4-1.8-4.2-3.7 2.3.2 3.8 1.5 5 3.4l-.6.2z" class="HKovECOc_24"></path><path d="M229 108h1c-.2 1.7-.3 3.4-2.2 4.2-2.5-2.2 1.3-2.7 1-4.2zm-33.5 34c-1.5 1.2-3-.3-4.5.1-.8-.8-.6-1.7-.1-2.5v-.1c2 .2 3.2 1.4 4.6 2.6zm9.5 4.2v-1l3.7 1 1.4 1.6c-.3.6-.8.7-1.3.4l-4-1.8zM170.2 103c.3-1.2.5-2.5 1.8-3 .4-.4.7-.4 1 .1-.3 1.6-.8 3-2 4-.4-.2-.7-.5-1-1z" class="HKovECOc_25"></path><path d="M173 100h-1c.3-.6.5-1.3 1-1.7.7-.6 2-1.6 2.5-.8 1 1.5-1.6 1.2-1.6 2.4h-.8zm5.8-4.3c-3.5.2-1.4-2.3-1.7-3.7.3-.4.7-.4 1 0l.8 1.2-.1 2.4zm-3.8 31.5l1-1.2c.1 1.7.3 3.3 2 4.2.1.7-.2 1-.8.7-2-.5-2.2-2-2.2-3.8zm43 1.6l2.2-2c.6 2-.7 3-1.4 4.2h-.5c-.1-.7-1.4-1.3-.3-2.2z" class="HKovECOc_26"></path><path d="M218.3 131h.5c.6 1.4 3 2 2 4-.5-1.5-4.6-.7-2.6-4zM231 96.7c.2 1-.1 2.4 1 3.2v2l-1.7-1c-.2-1.5-.2-3 .7-4.3zm-8 40c2.3-.1 3.3 1.5 4 3.3-2.4.1-3.2-1.6-4-3.3zm-46-5.8l.8-.7 1-.2c.3 1 2.8 1 1.7 2-.8 1-2.6 0-3.6-1.2zm-6.8-28a69 69 0 0 1 .9 1l-1.3 2.8-.8-1 1.3-2.8zm29.8 40.2l-1 1c-1.6 0-2.7-.6-3.2-2.2h2.2l2 1zm6.2-71c-1-.3-2.4 0-3-1h3.8l1 1-1.7.2zm-37 38.8h1.2c1 .5 1.4 1.2 1.5 2.2l-1 1-1.8-3zm7.8-76h1.2c1.5 3.3.6 6.7.6 10-.7 1 .2 2.3-1 3-1.8-4.3-.5-8.8-1-13.2zm2 38c-2.2-6.6-.5-13.5-1-20.2.7-.2 1 .1 1.3.7a49 49 0 0 1 .6 9.4v6c-.6 1.3.1 3-1 4zm-1 19h-1c-1-3.7 1.2-8.3-3.2-11 2.3.4 3-1 3.3-3 1-.2 1.4.2 1 1.2V92zm-62-41V40c.8-1-.2-2.4 1-3 1 2.3.8 4.8.7 7.3-.8 1.6-.2 3.3-.4 5-.1 1 .3 2-1.3 2z" class="HKovECOc_27"></path><path d="M178 79.3l-1-1.2c1.5-1 3.2-1.7 4.3-4.2 1 4 1.2 6.4-3.2 5.4zM116 51c.3-.7.6-1.4 1-2 .3-.4.6-.4.8 0l.3 8.7c.4.5.3 1-.2 1.3-2.2-2.3-1-5.4-2-8zm8 10.7l.4-1.4c2.2.2 1.7 3 3.4 3.6.6.6.6 1.2.4 2-.8 1-1.8 1.5-3 1.3-.4-.2-.7-.6-.8-1-.3-1.5.2-3-.3-4.5zm-6.8-25c-.4 1 .1 2.3-1 3l-.3-4.6c-.4-1.2-.7-2.4 1.2-2.3l2.7-1.8c.5 2.5-3 3-2.6 5.7z" class="HKovECOc_28"></path><path d="M147 65.8l-5.2.1c-.6-.6-1.7-.1-2-1 2.7-1.2 5.4-1.8 8 .2-.1.4-.3.6-.7.7zm-22.4-5.4l-.2.1c-2.4.7-4.7.6-6.4-1.5l.2-1.3c2 1.5 4.8.6 6.4 2.7zm66.6 9.6l-1.2 1c-2.5-.3-5-.5-7.2-1.7.1-.6.8-.7 1-1 2.4.5 5 .4 7.3 1.7z" class="HKovECOc_29"></path><path d="M184 68a51 51 0 0 0-1.1 1c-1.5.1-2.6.6-2 2.4.3 1.5-.6 1.6-1.7 1.5l.3-4c.5-.7-.3-2.4 1.6-2l3 1zm-5.2-15c-.3-.1-.5-.1-.7-.3V48c.2-1-.1-2.2 1-3l1 8c-.3.5-.7.5-1 .1zM128 66v-2c1.7.2 3.7-1 5 1 .3.6.2 1-.3 1.4-1.7.8-3.3 1-4.7-.6zm19-.2l.7-.7c1.5 1 3.5 1 4 3v.4c-2-.4-3.4-1.6-5-2.8z" class="HKovECOc_30"></path><path d="M133 66.3V65l4 1.8c.4.5.4 1 0 1.4-2.2 1-3.7.5-4.2-2zm27 6.7c-1.6-.1-3-.8-4-2 .2-.5.5-.7 1-.8 1.2.4 2.4.6 3 1.8.3.2.4.5.3.7s-.2.3-.3.3z" class="HKovECOc_31"></path><path d="M157 70.3l-1 .8-4-2.5v-.4c2-.3 3.3 1.3 5 2zM139.8 65l2 1-3 1c-.4.3-.8.3-1-.1.1-1.2.7-2 2-2zM124 25h1c-.7 1.4-.7 3.4-2.7 4 .1-1.5.6-3 1.8-4zm36 48c.1-.3.1-.6.1-1 1.3.3 2.4 1 3.2 2-1.6 1.5-2.3-.3-3.3-1z" class="HKovECOc_32"></path><path d="M118 49h-.8c.2-1.6-.6-3.4.8-4.8v5zm19.8 18h1l.2 2.8c.5 1-.1 1.3-1 1.4-1.3-.8-1.2-2-1-3.4v-1c.3 0 .5 0 .8.1zM173 241l-1-.2-2-3.4c-.3-.4-.6-1-.8-1.4-.4-1.6-.2-3.2-.2-4.8v-1.6c.1-1.8-.3-3.6.4-5.4 1.4-2.2 4.2-.4 6-2 .8-1.2.7-2.5.7-3.8-.1-.8.5-1 1.2-1.2s1.5.6 2.2-.1c-1 .3-1.5-.1-1.4-1h0c1.3-1 2.6-1 4 .1 1.3 2 2.3 4 5 4 2 1 4.2 1.8 6 3.2 1.2.5 2.3 1.4 3.8.8h1c1-.6 1-2 2.5-2.2 1.3.6 1.3 1.7 1 2.8-.1.4-.6.6-.6 1 .3-.1.5-.3.7-.6 1-2.4-1.2-4-1.6-6 0-1.7-1.2-3-1.5-4.7 0-1.5-.1-3 .1-4.5.7-1.6-.2-3.7 1.4-5v-1l7.5.3c1.3.8 2.8 1 4.3 1 2 .7 4.5.5 6.4 2 .4.3.8.8 1 1.2a26 26 0 0 1 .1 15c-.1.5-.3 1-.6 1.4-1 1.3-1.7 2.8-2.3 4.4-.4.6-1 1-1.6 1.3-2.2.6-4.6 1-6.6 2s-4 2-6.3 2.6c-2.3.5-2.7 2.5-3.2 4.3-1.8 3-4 5.6-7 7.4-3 1-6 1.7-8.7-1-1.4-1-3-.8-4.7-.8-3 0-5-1.3-5.5-4.3z" class="HKovECOc_33"></path><path d="M182 216h-4c2.3-4 1.3-6.2-3.3-7-3-.5-3.2-2.8-2.5-5 1-2.8 2.8-2 4.7-.8 3 2 2.7-1.7 4.4-2.6 2 5 1.7 10.2.7 15.4zm-9-20.8c3.2 1.5 5.5 2.6 7.8-.1 1-1.3 2.7-.2 3.3.8 1.2 2-1 2-2 2.5-5 2.3-7.3 1.6-9.2-3.2zm35 9.8c-2.7-.2-5.5 1-8-1 .1-.2.2-.4.2-.7.5-.7 1-.8 1.7-.3 3 .6 5.2-.3 6-3.5 1.4 1.3 1 3 1 4.6-.2.4-.4.7-1 1zm-77 38.2v-1c7.3-.7 14.7-.3 22 0 .3.2.4.4.3.6s-.2.3-.3.3l-22 .2zm58-23.2c.2-.3.3-.6.5-.8 1.3-1 2.2-3.8 4-2.3 1.4 1.3-.3 3-1.7 4.3-1.2.4-2.6 1.2-2.7-1.2zm-18.8-6.3c-2-3-1-6.2-.5-9.3 1.8 3-.2 6.2.5 9.3zm-.5 22.3l.3 1.6c-1.5-.3-2.3-1.2-2.2-2.7.4-4-.3-8 1-12 .4.3.7.7.6 1.3.2 2-.4 4 .3 6v1c-.7 1.6-.5 3.2-.1 4.8zM156 201.3c-.2-3.7 2.7-3.6 5-4.3l2 1c.4.5.4 1-.1 1.5-3-1.8-4.7 1.2-7 1.8z" class="HKovECOc_34"></path><path d="M169 224v-1.4c1.8-1.4 4-.3 6-.8.5-.4 1-.4 1.3.1-1 3.5-4 1.3-6 2-.4.4-.7.4-1 0zm-2.3 19c.3 2.6-1.3 1.7-2.5 1.4L159 243c-.3-.2-.4-.5-.3-.7s.2-.3.3-.3l7.7 1zm39.5-50c2.5 1.5-1.8 3.5.3 5-3 1-3.4-.5-3.2-3 .3-1 1-1.7 1.8-2.4.4 0 .8 0 1 .3z" class="HKovECOc_35"></path><path d="M205 193c.1 1-.4 2-1.6 2-1.2-.1-1.8 1.6-3 1-.2-.1-.3-1-.2-1.4.6-2.4 2.6-1.3 4-1.7.3-.3.5-.3.7.1zm-59.3.7c2.2 2 0 5 1.4 7.3-.3.4-.7.4-1 0-1.7-2.2-1.2-4.6-.8-7l.4-.2z" class="HKovECOc_36"></path><path d="M205 193c-.2-.1-.5-.1-.7-.1l-.7-7 .4-.1c1.2-1.3 2.5-2 4.2-1-1.4 2.5-4.6 4.6-1.8 8-.4 0-1 .1-1.3.1zm-59 8h1c2.8 0 5.8-1 8.4 1a12 12 0 0 1-9.3-1zm54 4c-.4 1.7.6 3.6-1 5.2-.3.4-.7.4-1 0 .8-1.7-2.5-4.8 2-5.2zm.2 16.7c-.1 1.3-.6 2.3-2.2 2.3 1-1.5-2-4 1-5 .4-.3.8-.3 1.2 0 .3 1 .7 1.8-.1 2.7zM189 220c.7 1 1.7 1 2.7 1.2l2.4 1.8c-.2.4-.6.7-1 1-2-1-4.8-1-6-3.7h2zm-23-20c1.3.1 2.7-.5 3.6.8.2.3 0 1-.2 1.2-1.4.8-2.5.1-3.5-1-.2-.3-.3-.5-.2-.8.1-.2.2-.4.3-.4zm9 17c-1.6 0-3.3.4-5.2-2.3 2.5.6 4.5-1 5.3 2.2h-.1zm3-.8l3.2 1.6-5 .7-1-1.4h.1l3-.8z" class="HKovECOc_37"></path><path d="M202 203l-1.7.3c-1.3-.8-1.6-2-.1-2.4 1.6-.5 1.6 1 1.8 2.2zm-2.2 16c-.3 0-.5 0-.8-.1l-.8-3c.3-.4.3-1 1-1 1 1.2 1.6 2.7 1.8 4.2-.4.6-.8.6-1.2.1z" class="HKovECOc_38"></path><path d="M199.2 214.8l-1 1c-.6-2-.6-4-.1-5.8h1v4.7zM159 242v1h-6v-1h6zm34-18.2l1-1 3 1c-1.4 2.4-2.6.1-4-.2zM166 200v1.2c-1.2-.2-2.3-.7-3-1.7V198l3 2zm10 22h-1.3c.3-1.2-.1-2.6 1.2-3.4.7 1.2 1.3 2.3.1 3.5zm19 45h-.8l-5.2 4v.7c-1 1.2-2 2.3-2.7 3.6-.8 1.5-1 3.4-2.4 4.7h.1c-1.7 2.6-4 2-6.5 1.4-1.5-.3-3-2-4.6-.1l-3 2.2c-1.8 2-4 2.2-6.2.8-1.3-1.6-.8-3.8-2-5.5-1-1-2.3-2-2.8-3.5v-8.8c.5-2.5 3.8-2 4.5-4.2 1-4-1.4-8.2 1.7-11.8 3-2.2 6.6-2 10-1.8 1.5 0 3 .4 4.5-.6.3-.3.7-.5 1-.7 1-.5 2-1 3-.6l2.5 2.8a13 13 0 0 0 3 3.2c2.3 2.8 5 5.3 6.7 8.6-.2 1.2.4 2.4.2 3.7-.3 1-1 1.4-1.5 2z" class="HKovECOc_39"></path><path d="M173 281.3c.3-2.8 2.3-1.6 3.4-1.2 2.6 1 5 1 7.6-.1.2 4-2.8 2.7-4.8 2.6s-4-1.7-6.3-1.3zm35.5-16.3l-.3 1c-2.2 1.3-4.8-.1-7 1-1.2.2-2.3 0-3.3-.7.6-1.2 1.6-1.7 2.8-2 2.7-.4 5.4-1 7.8 1zm-45.7 13.4c2.3 1.4.5 3.8 1.4 5.5-.4.5-.8.5-1.2.1l-1-1c-1-1.2-1-2.4-.4-3.7.3-.5.7-.7 1.3-.8z" class="HKovECOc_40"></path><path d="M163 284c.4 0 .8 0 1.2-.1 2 1 4 0 6-.5-2 4-4.5 4-7 .5zm-10 8.6c2.7 1.6 5.4 1.4 8 .1-3 3.5-5.3 3.5-8-.1zm36-21.6c1-2.2 2.5-4 5.2-4-1 2.2-2.4 4-5.2 4zm20 1.8l-1 1c.1-2-2.2-4.2-.1-6.3 1.2 1.6 1 3.4 1 5.2zm-25 7.2c.3-1.8.5-3.7 2-5 .5-.4 1-.4 1.4.1-1.4 1.5-.4 4.6-3.5 5zm-24.8 7l-.3-5.8c-.5-1-.4-2-.1-3 .5-.3 1-.4 1.5 0 .5.7.7 1.5.7 2.3-.1 2-.5 3.8-.7 5.7l-.4 1c-.2.5-.5.5-.7 0zm48-1h-1.6c-1.4-1.6-3-3.2.5-4h-.1c1.2 1 1.7 2.3 1.2 4zm-7.2-20.8l-2.2 1-2.8 1c0-.8.2-1.6 1-2 .6-.5 1.3-1 2-1 .8.1 1.5.3 2 1z" class="HKovECOc_41"></path><path d="M201 266.8c2.2-1.6 4.8-.4 7-1v1.5l-7-.6zM160.2 280l-.1-2c1-.5 1.6.1 2 1v4h-.8c-1-.8-.2-2.2-1-3z" class="HKovECOc_42"></path><path d="M160.2 280c1 .8.8 2 1 3-.1 1 .2 2.2-.8 3l-.1-6zm-1 7h.7c1.2 1.3 1.2 2.6.3 4-1.5-1-1-2.6-1-4zm28.3-12H186c.4-1.7 1.5-2.6 3-3.2.1 1.4-.6 2.5-1.6 3.4zM181 67l-1.6 2-.1-6c1-2.6-.6-5.5 1-8 1.3 4 .3 8.2.8 12.2z" class="HKovECOc_43"></path><path d="M180 54.8c-.7 2.7.7 5.5-1 8l-.4-9.8h1v1.8zm34.4 94.2l2.2-1c2 2 4.8-.7 6.6 1.4l1.7 2.2c1 1 1 2 1 3.2-1 3-.1 6.3-2 9v.7c-1 1-.2 2.6-1 3.7-3 2.2-6 1-9.2 1-1.2 0-2.5-.6-3.8-.4v.8c-1.5 2-3.4 3-6 1.8-1-.8-1-1.8-1-3 .4-1.5.3-3 1-4.4.8-1.2 2-1.8 3.2-2.5 1.3-.7 1.8-1.7 1.6-3-.1-1.5-.8-3-.3-4.6.4-1.6.7-3.3 2.2-4.4 1-.7 2.4-.5 3.6-.5zm3.6 75.5v-.1c2.3-2.8 1.4-6.2 1.6-9.3.1-1.8-.8-4 1.7-5h.6c1.3 1.3 4 1 4 3.6 1.7 2.6 1.3 5-.1 7.7-.3 2-3 4 .1 5.8l1 1c1.7 2 1.3 4.8 2.4 7 .8 2.3-1.3 3-2.4 4.3l-1.6 1.7c-3 .6-2.3-1.7-2.3-3 0-2 .8-4 .2-6-1.5-1.2-3.6-1-5-2.4-.6-.5-1-1.3-1-2-.1-1.2.3-2 1-3zM208 185l-4.2 1-.8-1.5c-1-1.6-1.3-3.3-.5-5 1.3-2.2 3-2.6 5.4-1.6 2 2.3 2.2 4.6 0 7v.4z" class="HKovECOc_44"></path><path d="M210 169c3-2.2 5.8.8 9 0 1.3-.4 3 .4 4-1 1.3 1.4.4 2.3-.8 3-4-1.4-8.4 1-12-2zm11.2 41c-2 3-1 6.3-1 9.5-.1 2-.3 3.8-2.3 5 1.4-5.5 1.6-11 0-16.4 1.5-1 2.3-.1 3 1v1zM204 171c2.2.1 4.2-.4 6-1.4l-1 4c.3.4.3 1 .1 1.3-2 .1-3.7-1-5.3-2-.4-.7-.3-1.4.2-2zm21 51a18 18 0 0 0 .9-8.5c1.8.4 2 1.8 2.2 3.3v2c-.5 1-.7 2.4-1.8 3-.4.5-.7.5-1 0z" class="HKovECOc_45"></path><path d="M209 175v-1.2c1.6 1 1 2.7.8 4.2-.6.6-1.3.6-2 0l-5 .6-.4-.5-.4-1 .5-.5c2-1 4.4-.7 6.5-1.5zm20.8-6l2.2 5.8c-4.7 1-2.2-3-3.2-4.7-.3-1 0-1.3 1-1zm-1.8 50c-1-.8-.7-1.5.3-2h5.8v1c-2 .5-4.2-.2-6 1zm-7-10c-1-.4-1.7-1.7-3-1h.1c-.4-1.2-2-1.4-2.3-2.6l.3-.5c2.7 0 4.6 1 5 4z" class="HKovECOc_46"></path><path d="M208 178h2c-.2 2.3 1.8 5.3-2 6.5 1.2-2.2 1-4.3 0-6.5zm14-7c.4-1 1.2-2 .8-3-.1-1.2-.2-2.4 1.2-3 .6 1.7-1 3.8 1 5.3-.5 1.7-1.8 1-3 1zm4 42.5c-1-1.5-3.5-1.5-4-3.6 2.2.3 5-.2 4 3.6zm3.8-44.5l-1 1-2.7-.3c.7-2.7 2-3 3.7-.8zM208 205l1-1h1c1 1 2.5-.1 3.3 1.2-.2 1-.5 1.4-1.5 1-1.4 0-2.8.3-3.7-1.2z" class="HKovECOc_47"></path><path d="M213 205c-1-.4-2.3 0-3-1 2 .3 4.3-.8 6 1h-.1c-1 .8-2 .8-3 0zm29.3 10c-1.6 1.2-3.5.8-5.3.8 1.6-1.5 3.5-.7 5.3-.8zM137 67.8l1.2 3c1.2.8 1.5 2.3 2.3 3.4 1.4 2.5 3 5 .5 7.7v1c-2 1-1.4 2.7-1.5 4.3-.1 2 .5 4-1 5.6-.5 1.5-.8 3-1.7 4.3-1.2 1.6-2.6 3.2-3 5.3-1.4 1.6-1.3 4.3-4 5a15 15 0 0 1-6.2 1.6h-.7c-2.6-.2-4.7-2.2-7.5-2l-5 1c-1.5 1.3-3.4 1-5 1.5-1.3.3-2.6.6-3.7-.5l-5-4c-1.8.2-3.8-.7-5 1.2v.7c-1.5 1.4-3.8 2-3.7 4.8-2.3 3.3-5 1.8-7.6.7a5 5 0 0 1-2.2-1.6l-4.4-7.4c-.6-1.5-.4-2.8 1-3.7 1-.6 2.3-.4 3.5-.5l1.4-1c3.3-1 7 1.8 10.2-1h.1c2-1.8 1.4-4.3 1.6-6.5.1-2-.7-4.3.8-6.3 1-1.5 2.7-1 4-1.6l4-2.2c1.8-1 3-2.5 4.6-3.5h-.1l3.6-2.5c1-.7 2-1.6 3-2.4l4-2c1.5-.5 2.8-1.4 4.4-1.6 1.7-.3 3-2.4 5-1.6l3-1 5 .4c1 1.6 2.6 1.5 4.2 1.5z" class="HKovECOc_48"></path><path d="M83 137c-1.6.4-3 .3-3-1.8-.5-3.8-.3-7.8-1.4-11.5l-.6-1.4c-.7-1.7-1-3.4-.7-5.2.4-1.6 1.4-2.7 2.8-3.5 2.7-.5 5.4-1 7 2l1 2c-1.6 1.7-3.4 3-4 5.5-.3 4.7.1 9.4-1.2 14z" class="HKovECOc_49"></path><path d="M83 137c.7-5-1.2-10 1-15 .4-.4.7-.4 1 0v10c-1.4 1.4-.6 3.2-.8 5h-1zm4-21.5c-2-2-4.7-.6-7-1.6-1-1-.3-2-.2-3 2.8.5 5.6 3.6 8.5.1l.4-.3.4.3c0 1.8-.7 3.3-2 4.5zm43-8.8c2-.7 1.7-3.8 4.2-4.2-.3 2.4-1.3 4.8-1 7.3.5 1-.1 1.3-1 1.2-.7-1-.7-2.5-2-3-.3-.2-.4-.5-.3-.8s.2-.4.3-.4zm-3 22c-.8 2.8-1.5 5.6-4 7.5-1-3.7.5-6.2 4-7.5z" class="HKovECOc_50"></path><path d="M134.8 113l2 4c-.3.5-.7.5-1.2.2-1 .5-1.4 1.7-2.6 1.6-1-1.3 0-2.6.1-3.8.7-.5-.2-2.4 1.7-2zm-19-6c3-1.7 5 .7 7.5 2-3 1.2-5-.7-7.5-2zm14.2-.3v1.2c-1.7 2-3.7 2.5-6 1l6-2.3zm1 15c-.2 2.8-1.7 4.6-4 5.7 0-2.8 2-4.3 4-5.7zm-39-15.4c1-3.7 3-2.4 5-1.2-1.3 2-3.5.3-5 1.2zm14 3c1.5-1.2 3.2-1.3 5-1.2-.5 3.8-3.3 1-5 1.8v-.6zM89 111h-.7c-1-3.4 1.5-3.6 3.8-4l-3 4zm29.3 27c-1.5 1.8-3.5 1-5.3 1 1.4-2.5 3.2-2.6 5.3-1z" class="HKovECOc_51"></path><path d="M85 122h-1c.5-2.3 1.7-4 4.2-4.4-.5 2-1.6 3.3-3 4.5zm49.8-9l-1.7 2-1-4 1-1.2 1.7 3.3zm-28.8-3.8v.6c-1.4.5-3.2 2.5-4-.8l4 .2zm8.7.6c-.2.8-.8 1-1.4 1-.3 0-1-.5-1-.7 0-1 1-.8 1.4-1 .6-.2 1 .1 1 .6zM184 247.2l-3 .8c-2-.6-3.8-.8-5.8-.4-1.7.4-3.3.3-4.2-1.5-1-.5-2.3-.2-2.6-2 2-.4 5 .4 4.7-3.2 1.5 2.5 3.6 3.6 6.6 3 1.5-.3 3.3-.5 4.7.8-.4.7.4 1.7-.3 2.4zM159.2 278l-.3 3.3c-1.2-5.4-1.7-10.8.1-16.2 1-.2 1.4.1 1 1v9.7c.7 1-.3 1.5-1 2z" class="HKovECOc_52"></path><path d="M166 250.8c-3 3.7-.1 8.3-1.8 12.2-.4.3-1 .3-1.2-.1v-9c0-1.7.1-3.4 2-4 1-.4 1 0 1 .8zm5-4.6c1.7 1 3.2.7 5 .2 1.5-.4 4.4-2 5 1.7h.1c-4.3 1.5-8.7 1.7-13 0l3-1.8z" class="HKovECOc_53"></path><path d="M168 248h13c-.6 2.3-2.3 2.2-4 2-3.2-1-6.7.4-10-.8l1-1z" class="HKovECOc_54"></path><path d="M167 249c3.3.4 6.7-.8 10 .8-3.6.6-7.4-.5-11 1l-1-.8c.3-1 1.2-1 2-1zm-4 14h1.3c.1 3-3 1.7-4 3l-1-1c.7-2 2.4-1.7 4-2zm37 2.2l-1.7-.3c-1.2-1-2.2-2-2.2-3.4-2.8-2.3-4.8-5.2-7-8-.7-1.3-1.7-2.5-2.5-3.8.5-3.6 4.3-2 6-3.7l5.6-7c1-1.4 1.7-3 3-4 2-.1 3.8.1 5 2 1.5 2 5 .3 6.2 3.2.3.2.6.4 1 .5 1 1.2 1 2.7 1 4.2.1 1.8-.5 3.5-.6 5.2-1 3.3.7 7-1.4 10.2v1.5c-1.4 1-2 2.8-3.6 3.4l-8.5.2z" class="HKovECOc_55"></path><path d="M212 260c.4-3.5-.7-7 1-10.4 1 .5.4 1.6 1 2.3-1 2.6 2.2 6.2-2 8zm-7-23c-1-1.7-3-1.2-4-2.2v-.3c2.5-.5 4.6-2.5 7.3-2.4.5-.1.7.1.6.6-.3.5-.6 1-1 1.4-1.5.5-1.4 2-1.8 3-.4.2-.8.2-1-.2z" class="HKovECOc_56"></path><path d="M223 231c2.2 1.2.8 3.3 1 5s-1 3.7 1.3 5c-2.6 2.6-3 .1-3-1.6-.1-2.3.4-4.6.6-7-.4-.5-.4-1 .2-1.3zm-14 1.7c-.1-.3-.3-.5-.7-.6a12 12 0 0 1 7-2c1-.3 1 .1.8 1a17 17 0 0 1-7.1 1.7zm20 2.3c-1.5-2.2-1.4-4.8-2-7.3 4 .7 1.3 4.4 2.8 6.2-.3.4-.3 1-1 1zm-16 10v-4.5c4 2 1.6 5 1.2 7.7-1.2-.8-.2-2.3-1-3.2z" class="HKovECOc_57"></path><path d="M223 231l-.2 1.3-5.8-1.7c-.3-1.7 1.3-1.2 2-1.7l4 2zm-17 6c.2-1.3 0-3 2-3-.8 1.6-1 3 1.4 3 1 0 2 0 2.6 1-2 0-4.5 2-6-1z" class="HKovECOc_58"></path><path d="M206 237c1.8 1.5 4 .5 6 1v2c-2-2-6 1-7-3h1zm23-2l1-1c1.7 3.2.1 4.6-3 5.2 0-1.7 2.4-2.2 2-4.2zm-4-13h1c-.3 1.6-1 3.3-.1 5-3.7-1-1.8-3-1-5zm-12 23c1.2.8.8 2 1 3.2l-.3 3.7-1-2.3.3-4.6zm6-16l-2 1.7-1 .2-.8-1 1.3-1c.1-1 .5-1.3 1.4-1l1 1zm-10.5 36c.7-1.7 1.6-3.2 3.6-3.4-1.2 1.2-1 3.7-3.6 3.4zM280 128c-2.8 1.8-5.2.3-7.6-1 3-1.7 5.6.2 8.3 1-.3.4-.5.4-.7-.1zm-17 16l4.8-1.2c.5.4.5 1 .1 1.4-3.8 2.3-3.8 2.3-5-.2z" class="HKovECOc_59"></path><path d="M272.2 127c-1.4 0-3-.1-4-1-.1-.6-1.5-1.7-.2-1.7 1.7 0 4 0 4.2 2.8zM255 146.2l3-1c1 .3 2-.4 3 .8-1.6 1.8-4 1-5.8 1.6-.2-.2-.3-.5-.3-.8.1-.3.1-.4.2-.4zm25-18.2c.2.1.5.1.7.1.6 2.6-.2 4.3-2.8 5-1-2.4 2.7-3 2-5.2zm-29 26c.1-2 .8-3.6 1.8-5.2.6.1.7.8 1 1-.1 1.6-.5 3-1.7 4-.4.6-.7.6-1 0zm1 11c-1.3-1-2-2.5-1.8-4.2.3-.4.4-1 1-1l1.7 4.3c-.2.4-.3 1-1 1zm11-44c-2.8.1-4.2-1-4-4h1l3 4z" class="HKovECOc_60"></path><path d="M251.2 159.8l-1 1c-.4-2.4-.6-4.8 1-7h1l-1 5.8zm16.8-15.6V143c.6-1.2 1.6-1.8 3-1.8.7 2.5-1.3 2.6-2.8 3zm-14 5.8l-1-1-.6-2.8c.3-.4.6-.4 1-.1l1.8.3v1.2L254 150zm-2 15c.3-.3.6-.7 1-1l1.6 3.8h-1l-1.3-3zm-28-1l1-9c1-.2 1.5.1 1 1.2-1 2.6 2 6.2-2.2 7.8zm13-16c2 .1 3.7 1.6 5.8 1-2.8 4-4.2 1-5.7-1z" class="HKovECOc_61"></path><path d="M253.2 146H248c1.7-2.6 3.4-3.7 5.3-.2zm-27 10.2l-1-1.2v-3.3c2.8.5 3 1 1.2 4.5zm4.6-10.2l1-1 3.6 2c-2 2-3.2-.2-4.7-1zM141 132c.4 1.4 2 .7 3 2-2.2 1-3.4 3-5 4.5l1-6.8 1 .5zm-2 13l1.8 5.2c-.1.5-.4.8-1 1-1.6-2-2.7-4.4-3-7 .3-.3.6-.5 1-.4.6.3.7 1 1.2 1.3zm2 16l-6-1c-1.4.1-2.4-.4-2.5-2 3-.1 6 .2 8.6 2 .3.3.4.5.3.7s-.2.3-.4.3zm-5.3-43.8l1.2-.2c1.7 1.3 2.2 3.2 3 5-.2.5-.5.8-1 1l-3.3-6zm3.3 8.6c-1.5 0-2.3 1-3 2.2-2.6-4 .4-4 3-4 .6.6.7 1.2.1 2z" class="HKovECOc_62"></path><path d="M141 161v-1c2 0 2.6-1 2-3 .1-2 1-1.6 2.2-.8-1 1.8.7 6.3-4.2 4.8z" class="HKovECOc_63"></path><path d="M145.2 156c-1-.1-1.7-.1-2.2.8-1.4-.5-1.5-2-2-3 .2-.4.5-.8 1-1 1 .6 1.7 1.4 3 1 .6.7.6 1.4.1 2.2h.1zm-19.5 2l2.3-1c1.6-.2 3.2-.2 4.6 1-.2.3-.5.6-.8.8-.5.3-1 .4-1.6 0-1.5-.1-3 .1-4.5-.8zm12.3-14h-1.2c-.7-2.3-1.5-4.6 2.2-5-.1.3-.1.5 0 .8-1 1.2.2 3-1 4.2zm1-18.2V123l1-1c0 1.3 3 3.3-.8 3.7z" class="HKovECOc_64"></path><path d="M132.5 158l2.5 2v1.3c-.7.5-1.4.5-2 .2-1-1-1.7-2-1-3.3.3.1.5.1.8 0h-.1zm9.5-5l-1 1-1.2-2.8 1-1 1.2 3zm-4 37c1.2 1.8 3.7.1 5 1.8h-13c-.8 0-1.7.7-2-.6-.2-1.3.8-1.7 1.8-2 .8-1 2.7-.1 3-1.7 0-.3.1-.7.1-1 1-.2 2 .4 3 1 .6.8 1.6 1.3 2 2.4zm14-40.3l1 .1c1.8 1.3 2.7 3 2 5.2-.5.4-1 .4-1.3-.1.4-1.7.2-3-2-3l-4.8-.4-.3-.4-.5-1c1.8-1.5 4-.6 5.8-.6zM134 177c.5-2.4 1.2-4.7.2-7 .2-.1.4-.3.5-.4 3.7 2.6 1.7 5.4.1 8-.4 0-.7-.2-.8-.6zm10 1.7c-.5 3.3-1 6.5-4 8.4 1.3-3 1.2-6.4 4-8.4zm-19 1v1.5c-1.3-1.3-1.7-3.3-.4-4.2 1.5-1 3.7-1.7 5.5-.1.3.4.3 1 0 1.3-1.8 0-4-1.7-5 1.4zm27.2-17.5c-.6 3.2 1 6.7-1 9.8-.5-3.7-.2-7.3.1-11 1-.1 1.5 0 1 1z" class="HKovECOc_65"></path><path d="M152.2 162.2l-1-1c.7-2 1-4.3 2.5-6.2h1.3c-1.4 2.2-1 5.2-2.8 7.2zM133 161l2 .2c.5 1.6 2.4 2.8 1 4.8-1 .3-1.3-.1-1-1 .2-2-2-2-2.7-3 .1-.5.3-.8.8-1z" class="HKovECOc_66"></path><path d="M135 165l1 1c-1 1-1.6 2-1.2 3.5-.1.2-.3.4-.5.4-3.2-2-1.7-3.6.7-5zm15.5 7c-1.3 2-3 3.4-5.6 2 1.5-1.6 3.3-2.4 5.6-2zm-4-20.8l.3.4c-.7 1.4-.1 3.4-1.8 4.5v-2c-1.2-2-1-3 1.6-2.7zM138 190c-1-.2-2-.7-2.2-1.8-.3-.6-.2-1.2.3-1.7 1 1.3 2.5 1 4 1.4l-2 2z" class="HKovECOc_67"></path><path d="M130 178.3V177h4l.8.6c-1.6.3-3 2.4-5 .6zm-6 6.7c1.3-1.4 3-2.6 2.2-5 1.8 2.8 1.2 4.5-2.2 5zm9 3c.1 2.7-2 1.2-3 1.7l-2.3-.6c1.5-2.2 3.8.1 5.4-1zm3-1.4v1.7c-1-.5-1.8-1-2.7-1.5 1-1 2-1.6 3-.2zM37 136l-.7 1c-1-1.7-1.6-4-4.4-3.8-3.2.3-3.2-1.7-3-4-.3-1 0-1.4 1-1 .2 6.2 4.4 3 7.2 3-1.8 1.7-.2 3.3-.1 5zm.2-9c0-3-.6-6.2.7-9 1.6 1.4 0 3.5 1 5v2.2c-.7.5.1 2.4-1.7 2zm21.6-2c-2-1.5-5 0-6.8-2-.3-.4-.3-1 0-1.3 2.7-.8 5.2 0 7.6 1.3.3.4.6.8.7 1.3-.3.8-.6 1.3-1.6.8zM45 117c.6-1.5 2-1 3-1.6.8 1.8.8 3.7.1 5.6-.4.3-.8.3-1.2-.1-1-.2-1-1-1-2-.4-.6-1.6-1-1-2z" class="HKovECOc_68"></path><path d="M38.8 123c-1.4-1.5-.4-3.4-1-5v-1.8c.3-.3.7-.3 1 0 .4 1-.2 3 2 3 1-.5 1.2.1 1 1-1.8.3-3 1-3 3zm21 9.7c-.1-.3-.4-.5-.7-.6l.1-6c2.6.4.5 2.8 1.6 4 .1 1 .4 2.3-1 2.8z" class="HKovECOc_69"></path><path d="M42 119.8l-1-1c1.2-1 2.5-1.8 4.2-1.8l1 2c-1.5-.5-2.7.5-4 .7zm-4.8 7.2l1.7-2c.3 2.3-.1 4.3-2 6-1-1.4 0-2.7.2-4zm9.8-6h1.3c1.7-1 3-.6 3.6 1.3v1c-2-.1-3.8-.2-5-2zm13.8 9c-1.4-1-.1-3-1.6-4l-.4-1 1.3-1c.3-.3.7-.3 1-.1l-.3 6zM39 116h-1l-2.8-6c.2-.3.4-.5.8-.5 2 1.8 3 4 3 6.6zm-9 12l-1 1-3 1.8v-1.3l-.7-2.8c.3-.4.4-1 1-1.3.7 1.6 3.3.3 3.7 2.3z" class="HKovECOc_70"></path><path d="M36 109.4l-.8.5H30c1.7-3 3.8-3 6-.6zm-9.8 16.3l-1 1.3c-.4-1.7-.1-3.6-1-5.2v-.6c3.2.3 2 2.8 2.2 4.5zM74 125c.1-3-1-5-4.2-5.8-.4-.5-.3-1 .1-1.5 2-1.3 4.2-1.2 6.4-.4 1.3.7.7 1.7.5 2.7-.7 1.6-.6 3.4-1.5 5-.4.3-.8.4-1.3.1zm-13-1h-1l-.3-.4c-1.2-2.5-1.3-4.8 1.7-6 1.2 0 2 .4 2.7 1.5-2.8.5-2 3.3-3 5z" class="HKovECOc_71"></path><path d="M74 125h1c.5-.3 1-.2 1.4.2.8 1.3.3 2.5-.3 3.7l-.3 1h-1c-1-1.6-.8-3.3-.7-5zm-9.8-6l-2.2-1c2.6-2.2 5.3-2.2 8 0v1h-5.7zm68.8 42l-.8 1c-1-.8-1.7-1.8-2-3l1.6-1 1.2 3zM114.8 7.8l1 1.2c-.6 2-.1 4.4-3 5-.1-2.3-.3-4.6 1.8-6.3zM117 33c-1 .5-1 1.4-1.2 2.3-1.5-3-1.7-5.8.2-8.6l1 6.3zm-2-7.7c-2.8-.7-2-3.6-3.2-5.3.3-.4.6-.4.8 0 1 1.6 3.5 2.7 2.3 5.3z" class="HKovECOc_72"></path><path d="M112.7 20h-.8c-1.5-2.4-2.3-4.7 1.2-6-.8 2-1 4-.4 6zM245 103c-1.8-.6-4 .8-5.6-1 2-.7 4.4-3.3 5.6 1zm-7 0c-2-.3-4.2.7-6-1 2 .5 4.2-1 6 1zm-30.8 183c-1-1-1.4-2.4-1.2-4 3.4-2 3.6.7 4 3l-2.8 1zM76 129l-.3-3.7c-.3-1.3-1-2.8 1-3.4.5.3.8.8 1 1.3.5 1.8.4 3.4-1 5l-1 1z" class="HKovECOc_73"></path><path d="M77 128c0-1.8.1-3.5.1-5.2.6-.1 1 .1 1.4.6.6 1.6.6 3.2-.4 4.7H78a11 11 0 0 1-.8.1z" class="HKovECOc_74"></path><path d="M79 122c2.2 4.3.5 8.8.8 13.2-1.7-2.2-.4-4.8-1-7.2-.6-2-.7-4 .1-6z" class="HKovECOc_75"></path><path d="M79 122v6h-.8l-.2-5c-.5-1 0-1.2 1-1h.2zM57 56c-1.5-1-3-2.6-5-1.7-2 1-1 3-1 4.5.3 10.7-.8 21.5.6 32.2-.2.4-.5.5-.8.1-.3-.5-1-1-1-1.6V55.2c.1-2.4 1-4.7.1-7 2.3 2.6 6.4 3.7 7 8zm-13.2-8l.1-6.6c-.5-1-.5-1.7 0-2.5.1-1 .3-2 1.7-1.8-.4 3.2-1.3 6.6 2 9L45 48.8c-.4-.3-1-.4-1.2-1zm22.7-22l6-2c-1.3 2.7-3 4-6 2zM55 31.7l6-2c.3.2.4.5.3.8s-.1.4-.2.4c-1.8 1.3-3.8 2-6 2-.5-.4-.5-.8 0-1.2zm46 49a7 7 0 0 1-3.7 2.3c-1 .4-1.4-.1-1.2-1 1-1.2 2.4-2 4-2 1-.6 1 0 1 .8zM125 67l-5 2c-.6-.4-.6-.8-.1-1.3l2-1.6c1-1 1.8-1 3-.3v1zm-49 5c-2-.8-3.4-2-4.3-4 2.3 0 3.7 1.6 5.2 3-.2.4-.5.7-1 1z" class="HKovECOc_76"></path><path d="M120 67.7V69l-4 1.8c-.5-.3-1-.2-1.5-.2-.3-.1-.6-.3-.8-.6l6.3-2.4zm5-2l-3 .3 2-4.4c1 1.2 2.3 2.4.8 4zM78.2 19c-1.7-1-4.6.6-5.2-2.6 1.8.7 4.5-.2 5.3 2.6zM96 82l1.2 1c-1 1.4-2.7 1-4 1-.6-.1-.7-.6-1-1l-.5-1H96zM61 30.8c0-.4-.1-.8-.1-1.2C62 28 63.2 27 65 27c-.6 2-2.2 3-4 3.8zm40 50l-1-.8c1.5-1.4 3-3 5-3-.8 2-2 3.2-4 3.8zm8-6c-.8 1.6-2.2 2.3-4 2.3.4-1.8 1.7-2.6 3.4-2.8.5-.1.6.1.5.6zM66 64c-2-1-3.5-2.2-4-4.3 2 .8 4.3 1.4 4 4.3z" class="HKovECOc_77"></path><path d="M55 31.7V33l-5 1c1-2.5 3-2 5-2.3zM73.4 24c1.3-1.5 2.7-3 4.8-3-1 2-2.4 3.3-4.8 3zm9.8 52c-1.4 0-2.5-.4-3.2-1.7-.3-.2-.4-.4-.3-.6s.1-.3.2-.3c2-.1 3 1 3.3 2.7zm25.8-1.2c-.1-.3-.2-.5-.5-.6L110 72c.5-.5 1.2-.6 2-.4.3.2.4.5.4.7 0 .3-.1.4-.2.4-1 .8-1.7 2-3.2 2z" class="HKovECOc_78"></path><path d="M80 73.3a3 3 0 0 0 0 1L76 72l1-1c1 .8 2 1.5 3 2.3zm31.8-1.5l-1.8.2c.7-1.6 2-2.2 3.6-2 .3.1.5 0 .8-.1-.1 1.7-1.4 1.6-2.5 1.8zM27 97v-1l17 .3c.3.2.4.5.3.7s-.2.3-.3.3c-5.7 1.3-11.3.4-17-.1zm16.8-49l1.2 1c-3.7 1-7.3 1-11 0-.3-.2-.4-.4-.3-.6s.2-.3.3-.3h9.8zm-14 11c-.6-3-1.6-6.2.5-9 .2-.5.4-.5.7-.1-.3 3 1.2 6.4-1.2 9zM51 91c.3-.1.6-.1.8-.1 3.2 1.8 2.6 3.8.1 5.8-.6-.5-1.6 0-2-1 2.8-1 1.5-3 1-4.8zM22.2 61c1.8-2.3 4.8-1 7-2-.5 4-4.6 1-6 3.3-.6-.1-.7-.7-1-1z" class="HKovECOc_79"></path><path d="M22.2 61l1 1c-.5 2 1.8 6-3.4 4.8 3.2-1 1.7-4 2.6-6zm27.6 35l2 1c-2.6.6-5.2.5-8 .3v-1h5.8zM31 50h-.8c-.3-3.7 2.4-1.6 3.8-2v1l-3 1zm13-11.3v2.5c-3.3-.8-7 .6-10-1.2l2-1 8-.4zM70 118c-2.7-.6-5.3-.3-8 0-3.3.8-1.5 3.7-2.2 5.5l-11.4-3c-1-1.8-2-3.5-.2-5.4 2-5 7-7.6 10.3-11.5 1.5 0 2.5-1 3.5-2h1c1.3-1.2 3.3-.8 4.7-1.7 1.3-.6 2.5-1.5 4-1 1.6.6 1.6 2.2 2.4 3.4.5 1.5 1.6 2.6 2.2 4L79 110c.2.3.5.4.8.4 1 1 .3 2 .2 3l-2 2.8c-.3.5-.4 1-1 1.4h-7zm20-21c-3 4-6.7 1.8-10.2 1 3.2-2.4 7 .3 10.2-1z" class="HKovECOc_80"></path><path d="M92 83l1 1c-1.3 2.8-.7 5.8-1 8.7-.1 1.8.3 3.8-2.2 4.2 2-4.5-.6-9.6 2.2-14zM78.5 99c-1 1-2.4 1-3.7 1-1 .6-2-.1-3-.4-.6-.2-1-.5-.8-1.3 2.5.2 5-1 7.4.8zM68 101c-1.6.8-3 1.6-5 1 .7-2 2.4-1.8 4-2 1-.5 1.2.1 1 1z" class="HKovECOc_81"></path><path d="M68 101l-1-1c1.3-1 2.3-2.3 4.2-1.7l1 .8c.2.2.3.5.2.7s-.2.3-.3.3l-4 1zm-6 1c-.2 2.4-1.4 3-3.5 2 .8-1.3 2-1.8 3.5-2zm129 37.5v2.5c-3 .3-5.8 2.2-9 1.6v-.5c2.2-2.4 6-1 8.2-3.6.2-.2.4-.3.6-.1zm13 31.5v1.8c.3 2-.5 3.2-2 4.2h.1c-1.7-3.6.4-7 .8-10.3.7.2.8 1 1 1.3v3zm-51-22c.8-3.3 3.2-3.4 6-2.8-1.2 2.5-4 1.8-6 2.8zm16.8-2c2.3-1.2 4.7-1.7 7.2-1-1.6 1.8-4 1.6-6 2-.4-.3-1-.4-1-1z" class="HKovECOc_82"></path><path d="M169.8 147l1 1c-2.4-.2-5.7 2.8-7-2 1.8 1.2 3.8 1 5.8.8zm41 2.4l-1.6 4.8c-.6-.2-.7-.8-1-1.2 0-1.7 1.6-3 .8-5l1.3-.4-.1.1c.2.5 1 1 .6 1.6z" class="HKovECOc_83"></path><path d="M202.4 178c.2.1.4.3.5.5v5.7c-2.7-1.8-3-4-.6-6.2zm5.6-25l1 1.2.8 4.8c-.4.6-.8 1-1.6 1-.6-2.3-.7-4.7-.3-7z" class="HKovECOc_84"></path><path d="M182 143.2v.5c-1.3 2-2.8 3-5 1.3 1.4-1.3 3-2 5-1.7zm26.3 16.8l1.6-1c.6 1.8-.2 2.7-1.8 3-1 .4-1.2-.1-1-1l1.3-1z" class="HKovECOc_85"></path><path d="M207 161l1 1c-.8 1-2 1.5-3.2 1.6-.2-.2-.3-.3-.5-.5.1-1.8 1.3-2 2.7-2z" class="HKovECOc_86"></path><path d="M204.4 163.2c.2.1.4.3.5.5l-1 4.3-1-1.3c.1-1.3-.3-3 1.6-3.5zM159 145c1.3-3 2.6-2 4 0h-4zm-18-63c1.6-3-.5-5.3-1-8 .3-.4.7-.5 1 0 1.8 2.7 4.3 5.3 0 8zm25.7 39.2c-.8 3-3.6 2.8-5.7 3.6-.4-.1-.7-.3-.7-.7 1.8-1.7 4-2.6 6.5-3zM138.2 93l.7-7c.2-1.4-.3-3.2 2-3-1.8 3 .2 7-1.7 10-.4.5-.8.5-1-.1zm12.8 39.2c-1.2 1.6-3 2-4.8 1.8-2.2-.3-.2-1.2 0-1.8 1.7.2 3.2-.3 4.7-1 .6.3.6.7.1 1z" class="HKovECOc_87"></path><path d="M160.2 124l.7.7c-1.4 1.2-3 2-5 2.3.3-2.5 2.3-2.8 4.3-3zm-9.2 8.2v-1c2.2-.6 1.3-4.3 4.3-4-1 2-.6 5.2-4.2 5.2zM138.2 93h1c-.2 1.7-.7 3.2-2.4 4-.3-1.6.6-3 1.3-4.2zm2.8-19h-1c-1.2-.7-1.5-2-1.7-3l1-1 1.7 4zm79 51c-1.3-1-2.7-2-1.2-3.5 1-1 2-.1 2.3 1.3 0 1-.2 1.8-1 2.2z" class="HKovECOc_88"></path><path d="M220 125l1-2.2c1.7.2 1.8 1 1 2.3s-1.4 1-2-.1zm4-8c.4-1 1-2.6 2-1.8 1 1-.4 2-1 3-.7-.1-.8-.8-1-1.2z" class="HKovECOc_89"></path><path d="M224 117l1 1.2c-.2.8-.5 2-1.4 1.6-1.6-1 .2-1.8.3-2.8zm-72 32.7l-5.8.6c1.8-2 3.8-1.5 5.8-.6zm-14-5.7c.2-1.4-.4-3 1-4.2v5l-1-1zm72.7 5.4l-.6-1.6c1.5.2 3.2-.2 4.3 1.2-1 .8-2.4 1-3.7.4zM192.5 246c-.4 3-5 .7-5 4-.4.5-.8.5-1.2 0-1-.6-1.7-1.6-2.2-2.7 0-.8-1-1.7.3-2.4 2.3 3.8 5.5.7 8.2 1zm7.3-27h1.2c1 2.2 2.7 4.3 1 6.8-.4-.1-.7-.4-1-.8-.2-1 .1-2.4-1-3.3l-.3-2.6z" class="HKovECOc_90"></path><path d="M213 205h3c1 .8 2.6 1.2 2 3l-6.3-2 1.2-1zm-12 29.5v.3c.4 2.3-1 3.3-3 4 .1-2 .6-3.8 3-4.3z" class="HKovECOc_91"></path><path d="M201 225l1 .8c-.4 1.6-1.5 1.3-2.6 1-.4-.1-1-1-.8-1 .6-1 1.7-.4 2.5-.7zm17 3l-1.4 1c-.6-2-1-3.8 1.6-4.6v3.6zm-49-4h1l-.4 5.8c-1.5-1.8-.5-4-.7-5.8zm.7 12c-1-1.6-1.2-3.3.1-4.8l-.1 4.8zm-10.5 42l1-2c1 .8 2.6 1 2.7 2.6-.2.2-.5.4-.8.6l-2-1c-.3 0-.6 0-1-.1zm26.8-28h1.2c1.4.8 1.7 2 1.7 3.5-1.4-.8-2.8-1.6-3-3.5zm10 11.5c1.3.8 1.7 2.2 2.2 3.4H196c.3-1.2-1.3-2.4.1-3.5zm6-84.5l2-4.2c2-.2 3.8.3 5 2-1.8 2.6-4.5 2-7 2zM72 100v-1l2.7 1c-.3 1-.7 2 0 3-.2.6-.6.7-1 .2L72 100z" class="HKovECOc_92"></path><path d="M73.8 103.2l1-.2 2.6 4c-.4.5-.8.5-1.3.1-1.4-.8-2-2.2-2.4-3.8z" class="HKovECOc_93"></path><path d="M76 107c.4 0 .8 0 1.3-.1 1.2 1 2 2 1.6 3.6-1.4-.8-2.7-1.7-3-3.5zm35.8-35.2l2.5-1.8 1.6 1-4 2-.2-1zM77 118l1-1.4c-.4 2 .1 3.7.8 5.4l-1 1-.8-.3c0-.2-.1-.5-.2-.7-.7-.6-1.6-1.2-1-2.3l1-1.6z" class="HKovECOc_94"></path><path d="M76 119.7l1 2.3c-1.2.8-.7 2-1 3.2-.3-.1-.5-.2-.8-.2.4-1.7-1-3.8 1-5.3z" class="HKovECOc_95"></path><style data-made-with="vivus-instant">.HKovECOc_0{stroke-dasharray:1953 1955;stroke-dashoffset:1954;animation:HKovECOc_draw 2000ms linear 0ms forwards;}.HKovECOc_1{stroke-dasharray:372 374;stroke-dashoffset:373;animation:HKovECOc_draw 2000ms linear 10ms forwards;}.HKovECOc_2{stroke-dasharray:356 358;stroke-dashoffset:357;animation:HKovECOc_draw 2000ms linear 21ms forwards;}.HKovECOc_3{stroke-dasharray:292 294;stroke-dashoffset:293;animation:HKovECOc_draw 2000ms linear 31ms forwards;}.HKovECOc_4{stroke-dasharray:765 767;stroke-dashoffset:766;animation:HKovECOc_draw 2000ms linear 42ms forwards;}.HKovECOc_5{stroke-dasharray:313 315;stroke-dashoffset:314;animation:HKovECOc_draw 2000ms linear 52ms forwards;}.HKovECOc_6{stroke-dasharray:737 739;stroke-dashoffset:738;animation:HKovECOc_draw 2000ms linear 63ms forwards;}.HKovECOc_7{stroke-dasharray:270 272;stroke-dashoffset:271;animation:HKovECOc_draw 2000ms linear 73ms forwards;}.HKovECOc_8{stroke-dasharray:211 213;stroke-dashoffset:212;animation:HKovECOc_draw 2000ms linear 84ms forwards;}.HKovECOc_9{stroke-dasharray:1 3;stroke-dashoffset:2;animation:HKovECOc_draw 2000ms linear 94ms forwards;}.HKovECOc_10{stroke-dasharray:322 324;stroke-dashoffset:323;animation:HKovECOc_draw 2000ms linear 105ms forwards;}.HKovECOc_11{stroke-dasharray:122 124;stroke-dashoffset:123;animation:HKovECOc_draw 2000ms linear 115ms forwards;}.HKovECOc_12{stroke-dasharray:272 274;stroke-dashoffset:273;animation:HKovECOc_draw 2000ms linear 126ms forwards;}.HKovECOc_13{stroke-dasharray:195 197;stroke-dashoffset:196;animation:HKovECOc_draw 2000ms linear 136ms forwards;}.HKovECOc_14{stroke-dasharray:143 145;stroke-dashoffset:144;animation:HKovECOc_draw 2000ms linear 147ms forwards;}.HKovECOc_15{stroke-dasharray:121 123;stroke-dashoffset:122;animation:HKovECOc_draw 2000ms linear 157ms forwards;}.HKovECOc_16{stroke-dasharray:292 294;stroke-dashoffset:293;animation:HKovECOc_draw 2000ms linear 168ms forwards;}.HKovECOc_17{stroke-dasharray:308 310;stroke-dashoffset:309;animation:HKovECOc_draw 2000ms linear 178ms forwards;}.HKovECOc_18{stroke-dasharray:111 113;stroke-dashoffset:112;animation:HKovECOc_draw 2000ms linear 189ms forwards;}.HKovECOc_19{stroke-dasharray:353 355;stroke-dashoffset:354;animation:HKovECOc_draw 2000ms linear 200ms forwards;}.HKovECOc_20{stroke-dasharray:542 544;stroke-dashoffset:543;animation:HKovECOc_draw 2000ms linear 210ms forwards;}.HKovECOc_21{stroke-dasharray:330 332;stroke-dashoffset:331;animation:HKovECOc_draw 2000ms linear 221ms forwards;}.HKovECOc_22{stroke-dasharray:87 89;stroke-dashoffset:88;animation:HKovECOc_draw 2000ms linear 231ms forwards;}.HKovECOc_23{stroke-dasharray:54 56;stroke-dashoffset:55;animation:HKovECOc_draw 2000ms linear 242ms forwards;}.HKovECOc_24{stroke-dasharray:123 125;stroke-dashoffset:124;animation:HKovECOc_draw 2000ms linear 252ms forwards;}.HKovECOc_25{stroke-dasharray:49 51;stroke-dashoffset:50;animation:HKovECOc_draw 2000ms linear 263ms forwards;}.HKovECOc_26{stroke-dasharray:45 47;stroke-dashoffset:46;animation:HKovECOc_draw 2000ms linear 273ms forwards;}.HKovECOc_27{stroke-dasharray:217 219;stroke-dashoffset:218;animation:HKovECOc_draw 2000ms linear 284ms forwards;}.HKovECOc_28{stroke-dasharray:78 80;stroke-dashoffset:79;animation:HKovECOc_draw 2000ms linear 294ms forwards;}.HKovECOc_29{stroke-dasharray:51 53;stroke-dashoffset:52;animation:HKovECOc_draw 2000ms linear 305ms forwards;}.HKovECOc_30{stroke-dasharray:65 67;stroke-dashoffset:66;animation:HKovECOc_draw 2000ms linear 315ms forwards;}.HKovECOc_31{stroke-dasharray:24 26;stroke-dashoffset:25;animation:HKovECOc_draw 2000ms linear 326ms forwards;}.HKovECOc_32{stroke-dasharray:42 44;stroke-dashoffset:43;animation:HKovECOc_draw 2000ms linear 336ms forwards;}.HKovECOc_33{stroke-dasharray:209 211;stroke-dashoffset:210;animation:HKovECOc_draw 2000ms linear 347ms forwards;}.HKovECOc_34{stroke-dasharray:234 236;stroke-dashoffset:235;animation:HKovECOc_draw 2000ms linear 357ms forwards;}.HKovECOc_35{stroke-dasharray:53 55;stroke-dashoffset:54;animation:HKovECOc_draw 2000ms linear 368ms forwards;}.HKovECOc_36{stroke-dasharray:31 33;stroke-dashoffset:32;animation:HKovECOc_draw 2000ms linear 378ms forwards;}.HKovECOc_37{stroke-dasharray:125 127;stroke-dashoffset:126;animation:HKovECOc_draw 2000ms linear 389ms forwards;}.HKovECOc_38{stroke-dasharray:21 23;stroke-dashoffset:22;animation:HKovECOc_draw 2000ms linear 400ms forwards;}.HKovECOc_39{stroke-dasharray:180 182;stroke-dashoffset:181;animation:HKovECOc_draw 2000ms linear 410ms forwards;}.HKovECOc_40{stroke-dasharray:65 67;stroke-dashoffset:66;animation:HKovECOc_draw 2000ms linear 421ms forwards;}.HKovECOc_41{stroke-dasharray:123 125;stroke-dashoffset:124;animation:HKovECOc_draw 2000ms linear 431ms forwards;}.HKovECOc_42{stroke-dasharray:29 31;stroke-dashoffset:30;animation:HKovECOc_draw 2000ms linear 442ms forwards;}.HKovECOc_43{stroke-dasharray:62 64;stroke-dashoffset:63;animation:HKovECOc_draw 2000ms linear 452ms forwards;}.HKovECOc_44{stroke-dasharray:203 205;stroke-dashoffset:204;animation:HKovECOc_draw 2000ms linear 463ms forwards;}.HKovECOc_45{stroke-dasharray:108 110;stroke-dashoffset:109;animation:HKovECOc_draw 2000ms linear 473ms forwards;}.HKovECOc_46{stroke-dasharray:69 71;stroke-dashoffset:70;animation:HKovECOc_draw 2000ms linear 484ms forwards;}.HKovECOc_47{stroke-dasharray:68 70;stroke-dashoffset:69;animation:HKovECOc_draw 2000ms linear 494ms forwards;}.HKovECOc_48{stroke-dasharray:222 224;stroke-dashoffset:223;animation:HKovECOc_draw 2000ms linear 505ms forwards;}.HKovECOc_49{stroke-dasharray:59 61;stroke-dashoffset:60;animation:HKovECOc_draw 2000ms linear 515ms forwards;}.HKovECOc_50{stroke-dasharray:99 101;stroke-dashoffset:100;animation:HKovECOc_draw 2000ms linear 526ms forwards;}.HKovECOc_51{stroke-dasharray:111 113;stroke-dashoffset:112;animation:HKovECOc_draw 2000ms linear 536ms forwards;}.HKovECOc_52{stroke-dasharray:116 118;stroke-dashoffset:117;animation:HKovECOc_draw 2000ms linear 547ms forwards;}.HKovECOc_53{stroke-dasharray:59 61;stroke-dashoffset:60;animation:HKovECOc_draw 2000ms linear 557ms forwards;}.HKovECOc_54{stroke-dasharray:30 32;stroke-dashoffset:31;animation:HKovECOc_draw 2000ms linear 568ms forwards;}.HKovECOc_55{stroke-dasharray:131 133;stroke-dashoffset:132;animation:HKovECOc_draw 2000ms linear 578ms forwards;}.HKovECOc_56{stroke-dasharray:43 45;stroke-dashoffset:44;animation:HKovECOc_draw 2000ms linear 589ms forwards;}.HKovECOc_57{stroke-dasharray:77 79;stroke-dashoffset:78;animation:HKovECOc_draw 2000ms linear 600ms forwards;}.HKovECOc_58{stroke-dasharray:34 36;stroke-dashoffset:35;animation:HKovECOc_draw 2000ms linear 610ms forwards;}.HKovECOc_59{stroke-dasharray:111 113;stroke-dashoffset:112;animation:HKovECOc_draw 2000ms linear 621ms forwards;}.HKovECOc_60{stroke-dasharray:79 81;stroke-dashoffset:80;animation:HKovECOc_draw 2000ms linear 631ms forwards;}.HKovECOc_61{stroke-dasharray:82 84;stroke-dashoffset:83;animation:HKovECOc_draw 2000ms linear 642ms forwards;}.HKovECOc_62{stroke-dasharray:122 124;stroke-dashoffset:123;animation:HKovECOc_draw 2000ms linear 652ms forwards;}.HKovECOc_63{stroke-dasharray:17 19;stroke-dashoffset:18;animation:HKovECOc_draw 2000ms linear 663ms forwards;}.HKovECOc_64{stroke-dasharray:52 54;stroke-dashoffset:53;animation:HKovECOc_draw 2000ms linear 673ms forwards;}.HKovECOc_65{stroke-dasharray:163 165;stroke-dashoffset:164;animation:HKovECOc_draw 2000ms linear 684ms forwards;}.HKovECOc_66{stroke-dasharray:33 35;stroke-dashoffset:34;animation:HKovECOc_draw 2000ms linear 694ms forwards;}.HKovECOc_67{stroke-dasharray:51 53;stroke-dashoffset:52;animation:HKovECOc_draw 2000ms linear 705ms forwards;}.HKovECOc_68{stroke-dasharray:134 136;stroke-dashoffset:135;animation:HKovECOc_draw 2000ms linear 715ms forwards;}.HKovECOc_69{stroke-dasharray:35 37;stroke-dashoffset:36;animation:HKovECOc_draw 2000ms linear 726ms forwards;}.HKovECOc_70{stroke-dasharray:86 88;stroke-dashoffset:87;animation:HKovECOc_draw 2000ms linear 736ms forwards;}.HKovECOc_71{stroke-dasharray:72 74;stroke-dashoffset:73;animation:HKovECOc_draw 2000ms linear 747ms forwards;}.HKovECOc_72{stroke-dasharray:90 92;stroke-dashoffset:91;animation:HKovECOc_draw 2000ms linear 757ms forwards;}.HKovECOc_73{stroke-dasharray:71 73;stroke-dashoffset:72;animation:HKovECOc_draw 2000ms linear 768ms forwards;}.HKovECOc_74{stroke-dasharray:13 15;stroke-dashoffset:14;animation:HKovECOc_draw 2000ms linear 778ms forwards;}.HKovECOc_75{stroke-dasharray:28 30;stroke-dashoffset:29;animation:HKovECOc_draw 2000ms linear 789ms forwards;}.HKovECOc_76{stroke-dasharray:211 213;stroke-dashoffset:212;animation:HKovECOc_draw 2000ms linear 800ms forwards;}.HKovECOc_77{stroke-dasharray:102 104;stroke-dashoffset:103;animation:HKovECOc_draw 2000ms linear 810ms forwards;}.HKovECOc_78{stroke-dasharray:46 48;stroke-dashoffset:47;animation:HKovECOc_draw 2000ms linear 821ms forwards;}.HKovECOc_79{stroke-dasharray:136 138;stroke-dashoffset:137;animation:HKovECOc_draw 2000ms linear 831ms forwards;}.HKovECOc_80{stroke-dasharray:182 184;stroke-dashoffset:183;animation:HKovECOc_draw 2000ms linear 842ms forwards;}.HKovECOc_81{stroke-dasharray:59 61;stroke-dashoffset:60;animation:HKovECOc_draw 2000ms linear 852ms forwards;}.HKovECOc_82{stroke-dasharray:97 99;stroke-dashoffset:98;animation:HKovECOc_draw 2000ms linear 863ms forwards;}.HKovECOc_83{stroke-dasharray:32 34;stroke-dashoffset:33;animation:HKovECOc_draw 2000ms linear 873ms forwards;}.HKovECOc_84{stroke-dasharray:30 32;stroke-dashoffset:31;animation:HKovECOc_draw 2000ms linear 884ms forwards;}.HKovECOc_85{stroke-dasharray:22 24;stroke-dashoffset:23;animation:HKovECOc_draw 2000ms linear 894ms forwards;}.HKovECOc_86{stroke-dasharray:10 12;stroke-dashoffset:11;animation:HKovECOc_draw 2000ms linear 905ms forwards;}.HKovECOc_87{stroke-dasharray:94 96;stroke-dashoffset:95;animation:HKovECOc_draw 2000ms linear 915ms forwards;}.HKovECOc_88{stroke-dasharray:59 61;stroke-dashoffset:60;animation:HKovECOc_draw 2000ms linear 926ms forwards;}.HKovECOc_89{stroke-dasharray:17 19;stroke-dashoffset:18;animation:HKovECOc_draw 2000ms linear 936ms forwards;}.HKovECOc_90{stroke-dasharray:82 84;stroke-dashoffset:83;animation:HKovECOc_draw 2000ms linear 947ms forwards;}.HKovECOc_91{stroke-dasharray:27 29;stroke-dashoffset:28;animation:HKovECOc_draw 2000ms linear 957ms forwards;}.HKovECOc_92{stroke-dasharray:105 107;stroke-dashoffset:106;animation:HKovECOc_draw 2000ms linear 968ms forwards;}.HKovECOc_93{stroke-dasharray:13 15;stroke-dashoffset:14;animation:HKovECOc_draw 2000ms linear 978ms forwards;}.HKovECOc_94{stroke-dasharray:37 39;stroke-dashoffset:38;animation:HKovECOc_draw 2000ms linear 989ms forwards;}.HKovECOc_95{stroke-dasharray:13 15;stroke-dashoffset:14;animation:HKovECOc_draw 2000ms linear 1000ms forwards;}@keyframes HKovECOc_draw{100%{stroke-dashoffset:0;}}@keyframes HKovECOc_fade{0%{stroke-opacity:1;}94.44444444444444%{stroke-opacity:1;}100%{stroke-opacity:0;}}</style></svg>